<svg width="24" height="24" viewBox="0 0 24 24" fill="none" xmlns="http://www.w3.org/2000/svg">
<mask id="mask0_792_8688" style="mask-type:alpha" maskUnits="userSpaceOnUse" x="0" y="0" width="24" height="24">
<rect y="24" width="24" height="24" transform="rotate(-90 0 24)" fill="#D9D9D9"/>
</mask>
<g mask="url(#mask0_792_8688)">
<path d="M11.9996 14.3844L19.3496 7.03438C19.5996 6.78438 19.8913 6.66354 20.2246 6.67188C20.558 6.68021 20.8496 6.80937 21.0996 7.05937C21.3496 7.30937 21.4746 7.60104 21.4746 7.93437C21.4746 8.26771 21.3496 8.55937 21.0996 8.80937L13.4246 16.5094C13.2246 16.7094 12.9996 16.8594 12.7496 16.9594C12.4996 17.0594 12.2496 17.1094 11.9996 17.1094C11.7496 17.1094 11.4996 17.0594 11.2496 16.9594C10.9996 16.8594 10.7746 16.7094 10.5746 16.5094L2.87462 8.80938C2.62462 8.55938 2.50379 8.26354 2.51212 7.92188C2.52045 7.58021 2.64962 7.28438 2.89962 7.03438C3.14962 6.78438 3.44129 6.65938 3.77462 6.65938C4.10795 6.65938 4.39962 6.78438 4.64962 7.03438L11.9996 14.3844Z" fill="#A5A5A5"/>
</g>
</svg>
