<svg width="36" height="36" viewBox="0 0 36 36" fill="none" xmlns="http://www.w3.org/2000/svg">
<g id="vuesax/outline/arrow-right">
<g id="arrow-right">
<path id="Vector" d="M22.6351 31.005C22.9201 31.005 23.2051 30.9 23.4301 30.675C23.8651 30.24 23.8651 29.52 23.4301 29.085L13.6501 19.305C12.9301 18.585 12.9301 17.415 13.6501 16.695L23.4301 6.91503C23.8651 6.48003 23.8651 5.76003 23.4301 5.32503C22.9951 4.89003 22.2751 4.89003 21.8401 5.32503L12.0601 15.105C11.2951 15.87 10.8601 16.905 10.8601 18C10.8601 19.095 11.2801 20.13 12.0601 20.895L21.8401 30.675C22.0651 30.885 22.3501 31.005 22.6351 31.005Z" fill="white"/>
</g>
</g>
</svg>
