<svg width="70" height="70" viewBox="0 0 70 70" fill="none" xmlns="http://www.w3.org/2000/svg">
<path d="M59.7923 46.6667V53.9583C59.7923 59.5875 55.2132 64.1667 49.584 64.1667H20.4173C14.7882 64.1667 10.209 59.5875 10.209 53.9583V52.0625C10.209 47.4833 13.9423 43.75 18.5215 43.75H56.8757C58.4798 43.75 59.7923 45.0625 59.7923 46.6667Z" fill="#008CFF"/>
<path d="M45.209 5.83398H24.7923C13.1257 5.83398 10.209 8.75065 10.209 20.4173V42.5257C12.4257 40.5715 15.3423 39.3757 18.5215 39.3757H56.8757C58.4798 39.3757 59.7923 38.0632 59.7923 36.459V20.4173C59.7923 8.75065 56.8757 5.83398 45.209 5.83398ZM37.9173 31.3548H23.334C22.1382 31.3548 21.1465 30.3632 21.1465 29.1673C21.1465 27.9715 22.1382 26.9798 23.334 26.9798H37.9173C39.1132 26.9798 40.1048 27.9715 40.1048 29.1673C40.1048 30.3632 39.1132 31.3548 37.9173 31.3548ZM46.6673 21.1465H23.334C22.1382 21.1465 21.1465 20.1548 21.1465 18.959C21.1465 17.7632 22.1382 16.7715 23.334 16.7715H46.6673C47.8632 16.7715 48.8548 17.7632 48.8548 18.959C48.8548 20.1548 47.8632 21.1465 46.6673 21.1465Z" fill="#008CFF"/>
</svg>
