<svg width="70" height="70" viewBox="0 0 70 70" fill="none" xmlns="http://www.w3.org/2000/svg">
<path d="M51.3923 31.3548C50.1382 31.3548 49.1465 30.334 49.1465 29.109C49.1465 28.0298 48.0673 25.784 46.259 23.8298C44.4798 21.934 42.5257 20.8257 40.8923 20.8257C39.6382 20.8257 38.6465 19.8048 38.6465 18.5798C38.6465 17.3548 39.6673 16.334 40.8923 16.334C43.809 16.334 46.8715 17.909 49.5548 20.7382C52.0632 23.3923 53.6673 26.6882 53.6673 29.0798C53.6673 30.334 52.6465 31.3548 51.3923 31.3548Z" fill="#008CFF"/>
<path d="M61.9216 31.3548C60.6674 31.3548 59.6758 30.334 59.6758 29.109C59.6758 18.7548 51.2466 10.3548 40.9216 10.3548C39.6674 10.3548 38.6758 9.33398 38.6758 8.10898C38.6758 6.88398 39.6674 5.83398 40.8924 5.83398C53.7258 5.83398 64.1674 16.2756 64.1674 29.109C64.1674 30.334 63.1466 31.3548 61.9216 31.3548Z" fill="#008CFF"/>
<path d="M64.0798 53.4631C64.0798 54.5131 63.8465 55.5923 63.3506 56.6423C62.8548 57.6923 62.2132 58.684 61.3673 59.6173C59.9382 61.1923 58.3631 62.3298 56.584 63.059C54.834 63.7882 52.9382 64.1673 50.8965 64.1673C47.9215 64.1673 44.7423 63.4673 41.3881 62.0381C38.034 60.609 34.6798 58.684 31.3548 56.2632C28.0006 53.8132 24.8215 51.1006 21.7881 48.0965C18.784 45.0631 16.0715 41.884 13.6507 38.559C11.259 35.234 9.33398 31.909 7.93398 28.6132C6.53398 25.2882 5.83398 22.109 5.83398 19.0757C5.83398 17.0923 6.18398 15.1965 6.88398 13.4465C7.58398 11.6673 8.69232 10.034 10.2382 8.57565C12.1048 6.73815 14.1465 5.83398 16.3048 5.83398C17.1215 5.83398 17.9382 6.00898 18.6673 6.35898C19.4257 6.70898 20.0965 7.23398 20.6215 7.99232L27.3882 17.5298C27.9132 18.259 28.2923 18.9298 28.5548 19.5715C28.8173 20.184 28.9632 20.7965 28.9632 21.3507C28.9632 22.0507 28.759 22.7506 28.3507 23.4215C27.9715 24.0923 27.4173 24.7923 26.7173 25.4923L24.5006 27.7965C24.1798 28.1173 24.034 28.4965 24.034 28.9632C24.034 29.1965 24.0632 29.4006 24.1215 29.634C24.209 29.8673 24.2965 30.0423 24.3548 30.2173C24.8798 31.1798 25.784 32.434 27.0673 33.9507C28.3798 35.4673 29.7798 37.0132 31.2965 38.559C32.8715 40.1048 34.3881 41.534 35.934 42.8465C37.4506 44.1298 38.7048 45.0048 39.6965 45.5298C39.8423 45.5881 40.0173 45.6756 40.2215 45.7631C40.4548 45.8506 40.6881 45.8798 40.9506 45.8798C41.4465 45.8798 41.8256 45.7048 42.1465 45.384L44.3631 43.1965C45.0923 42.4673 45.7923 41.9131 46.4631 41.5631C47.134 41.1548 47.8048 40.9506 48.534 40.9506C49.0881 40.9506 49.6715 41.0673 50.3131 41.3298C50.9548 41.5923 51.6257 41.9715 52.3548 42.4673L62.009 49.3215C62.7673 49.8465 63.2923 50.459 63.6131 51.1881C63.9048 51.9173 64.0798 52.6465 64.0798 53.4631Z" fill="#008CFF"/>
</svg>
