<svg width="20" height="20" viewBox="0 0 20 20" fill="none" xmlns="http://www.w3.org/2000/svg">
<path fill-rule="evenodd" clip-rule="evenodd" d="M16.5 2.41716H3.5C2.9037 2.41716 2.41667 2.90419 2.41667 3.50049V16.5005C2.41667 17.0962 2.90417 17.5838 3.5 17.5838H16.5C17.0952 17.5838 17.5833 17.0957 17.5833 16.5005V3.50049C17.5833 2.90466 17.0957 2.41716 16.5 2.41716ZM3.5 0.250488H16.5C18.2918 0.250488 19.75 1.70757 19.75 3.50049V16.5005C19.75 18.2923 18.2918 19.7505 16.5 19.7505H3.5C1.70708 19.7505 0.25 18.2923 0.25 16.5005V3.50049C0.25 1.70757 1.70708 0.250488 3.5 0.250488Z" fill="#D1D5DB"/>
</svg>
