<svg width="172" height="36" viewBox="0 0 172 36" fill="none" xmlns="http://www.w3.org/2000/svg">
<rect width="172" height="36" rx="4" fill="#008CFF"/>
<mask id="mask0_884_10480" style="mask-type:alpha" maskUnits="userSpaceOnUse" x="11" y="6" width="24" height="24">
<rect x="11" y="6" width="24" height="24" fill="#D9D9D9"/>
</mask>
<g mask="url(#mask0_884_10480)">
<path d="M14 14H32V11.5C32 11.0833 31.8542 10.7292 31.5625 10.4375C31.2708 10.1458 30.9167 10 30.5 10H15.5C15.0833 10 14.7292 10.1458 14.4375 10.4375C14.1458 10.7292 14 11.0833 14 11.5V14ZM14 20H32V16H14V20ZM15.5 26H30.5C30.9167 26 31.2708 25.8542 31.5625 25.5625C31.8542 25.2708 32 24.9167 32 24.5V22H14V24.5C14 24.9167 14.1458 25.2708 14.4375 25.5625C14.7292 25.8542 15.0833 26 15.5 26ZM16 13C15.7167 13 15.4792 12.9042 15.2875 12.7125C15.0958 12.5208 15 12.2833 15 12C15 11.7167 15.0958 11.4792 15.2875 11.2875C15.4792 11.0958 15.7167 11 16 11C16.2833 11 16.5208 11.0958 16.7125 11.2875C16.9042 11.4792 17 11.7167 17 12C17 12.2833 16.9042 12.5208 16.7125 12.7125C16.5208 12.9042 16.2833 13 16 13ZM16 19C15.7167 19 15.4792 18.9042 15.2875 18.7125C15.0958 18.5208 15 18.2833 15 18C15 17.7167 15.0958 17.4792 15.2875 17.2875C15.4792 17.0958 15.7167 17 16 17C16.2833 17 16.5208 17.0958 16.7125 17.2875C16.9042 17.4792 17 17.7167 17 18C17 18.2833 16.9042 18.5208 16.7125 18.7125C16.5208 18.9042 16.2833 19 16 19ZM16 25C15.7167 25 15.4792 24.9042 15.2875 24.7125C15.0958 24.5208 15 24.2833 15 24C15 23.7167 15.0958 23.4792 15.2875 23.2875C15.4792 23.0958 15.7167 23 16 23C16.2833 23 16.5208 23.0958 16.7125 23.2875C16.9042 23.4792 17 23.7167 17 24C17 24.2833 16.9042 24.5208 16.7125 24.7125C16.5208 24.9042 16.2833 25 16 25Z" fill="white"/>
</g>
<path d="M55.7598 12.3711V21.3945H54.2422V16.8691H52.0547V15.6387H54.2422V12.3711H55.7598ZM45.3828 18.7285C47.3516 18.0791 48.4043 16.4658 48.4043 14.8184V14.4902H45.834V13.2598H52.5059V14.4902H49.9492V14.832C49.9492 16.3154 50.9473 17.8535 52.8613 18.4824L52.0957 19.6992C50.7148 19.2275 49.7373 18.2842 49.1973 17.1152C48.6572 18.4141 47.625 19.4531 46.1621 19.959L45.3828 18.7285ZM47.6523 24.4707V20.6016H49.1699V23.2402H56.0742V24.4707H47.6523ZM61.2832 16.1309C61.2832 18.0449 62.0693 19.9727 63.7988 20.9023L62.9512 22.0234C61.8027 21.415 61.0234 20.3281 60.5791 19.0293C60.1416 20.4307 59.3623 21.6338 58.207 22.3105L57.3184 21.1621C59.0684 20.1504 59.8408 18.0859 59.8477 16.1309V15.748H57.7422V14.5176H59.8477V12.7949H61.2832V14.5176H63.3477V15.748H61.2832V16.1309ZM62.582 18.3594V17.1016H64.1953V12.5898H65.6309V24.1152H64.1953V18.3594H62.582ZM66.6973 24.7168V12.3574H68.1465V24.7168H66.6973ZM83.2812 12.3711V21.5039H81.7637V18.8105H78.7832V17.5664H81.7637V16.0352H78.9473C78.0723 17.9355 76.2539 19.3574 73.752 20.123L73.1094 18.9336C75.8301 18.0586 77.5869 16.4932 77.8672 14.5312H73.752V13.3145H79.5352C79.5352 13.834 79.4736 14.333 79.3711 14.8047H81.7637V12.3711H83.2812ZM75.2285 24.4707V20.6016H76.7734V23.2402H83.5957V24.4707H75.2285ZM89.5703 14.4766C89.5703 15.9873 90.5684 17.498 92.4824 18.1406L91.7168 19.3164C90.3359 18.8652 89.3584 17.9287 88.8184 16.7666C88.2783 18.0586 87.2529 19.0977 85.7832 19.5898L85.0039 18.3867C86.9727 17.7373 88.0254 16.0967 88.0254 14.4902V14.3262H85.4551V13.1094H92.127V14.3262H89.5703V14.4766ZM86.959 21.5312V20.3145H95.3809V24.7168H93.8633V21.5312H86.959ZM91.7578 16.6641V15.4199H93.8633V12.3574H95.3809V19.7266H93.8633V16.6641H91.7578ZM101.697 15.3242C101.69 17.6211 102.791 19.877 104.76 20.7383L103.844 21.9551C102.449 21.2715 101.465 19.959 100.938 18.3389C100.398 20.0479 99.3867 21.4697 97.9648 22.1875L97.0078 20.957C99.0244 20.0137 100.146 17.6348 100.152 15.3242V13.3555H101.697V15.3242ZM103.393 17.5801V16.3496H105.99V12.3574H107.494V24.7305H105.99V17.5801H103.393ZM123.162 12.3574V24.7168H121.699V18.4688H120.332V24.0879H118.91V12.5898H120.332V17.2246H121.699V12.3574H123.162ZM113.086 21.6406V13.7793H114.617V20.3008C115.684 20.2803 116.846 20.1846 118.145 19.9316L118.295 21.2578C116.627 21.5518 115.212 21.6406 113.906 21.6406H113.086ZM135.945 21.9824V23.2266H124.652V21.9824H129.52V19.5762H125.896V13.1777H127.414V15.2012H133.143V13.1777H134.66V19.5762H131.023V21.9824H135.945ZM127.414 18.3457H133.143V16.418H127.414V18.3457ZM147.361 12.3574V24.7168H145.898V18.4688H144.531V24.0879H143.109V12.5898H144.531V17.2246H145.898V12.3574H147.361ZM137.285 21.6406V13.7793H138.816V20.3008C139.883 20.2803 141.045 20.1846 142.344 19.9316L142.494 21.2578C140.826 21.5518 139.411 21.6406 138.105 21.6406H137.285ZM159.174 12.3574V24.7168H157.643V12.3574H159.174ZM148.934 21.3125C152.174 19.7744 153.664 17.6826 153.938 14.873H149.562V13.6699H155.482C155.482 17.3477 154.054 20.4717 149.727 22.5293L148.934 21.3125Z" fill="white"/>
</svg>
