<svg xmlns="http://www.w3.org/2000/svg" width="24" height="24" viewBox="0 0 24 24" fill="none">
  <mask id="mask0_474_5201" style="mask-type:alpha" maskUnits="userSpaceOnUse" x="8" y="6" width="12" height="12">
    <rect x="8" y="6" width="12" height="12" fill="#A5A5A5"/>
  </mask>
  <g mask="url(#mask0_474_5201)">
    <path d="M9.77266 11.9994L13.4477 15.6744C13.5727 15.7994 13.6331 15.9453 13.6289 16.1119C13.6247 16.2786 13.5602 16.4244 13.4352 16.5494C13.3102 16.6744 13.1643 16.7369 12.9977 16.7369C12.831 16.7369 12.6852 16.6744 12.5602 16.5494L8.71016 12.7119C8.61016 12.6119 8.53516 12.4994 8.48516 12.3744C8.43516 12.2494 8.41016 12.1244 8.41016 11.9994C8.41016 11.8744 8.43516 11.7494 8.48516 11.6244C8.53516 11.4994 8.61016 11.3869 8.71016 11.2869L12.5602 7.43694C12.6852 7.31194 12.8331 7.25153 13.0039 7.25569C13.1747 7.25986 13.3227 7.32444 13.4477 7.44944C13.5727 7.57444 13.6352 7.72028 13.6352 7.88694C13.6352 8.05361 13.5727 8.19944 13.4477 8.32444L9.77266 11.9994Z" fill="#A5A5A5"/>
  </g>
  <circle cx="12" cy="12" r="11.5" stroke="#A5A5A5"/>
</svg>