<svg width="70" height="70" viewBox="0 0 70 70" fill="none" xmlns="http://www.w3.org/2000/svg">
<path d="M54.834 28.9043C51.5381 28.9043 48.5923 30.5085 46.7548 32.9585C44.9173 30.5085 41.9715 28.9043 38.6757 28.9043C33.1048 28.9043 28.584 33.4543 28.584 39.0543C28.584 41.2126 28.934 43.2251 29.5173 45.0626C32.3757 54.1335 41.2423 59.5876 45.6173 61.0751C46.2298 61.2793 47.2506 61.2793 47.8631 61.0751C52.2381 59.5876 61.1048 54.1626 63.9631 45.0626C64.5756 43.196 64.8965 41.2126 64.8965 39.0543C64.9256 33.4543 60.4048 28.9043 54.834 28.9043Z" fill="#008CFF"/>
<path d="M60.5215 24.3244C60.5215 24.9952 59.8507 25.4327 59.209 25.2577C55.2715 24.2368 50.9548 25.0827 47.6882 27.416C47.0465 27.8827 46.1715 27.8827 45.559 27.416C43.2548 25.7243 40.4548 24.791 37.509 24.791C29.984 24.791 23.859 30.9452 23.859 38.5285C23.859 46.7535 27.7965 52.9077 31.7632 57.0202C31.9673 57.2243 31.7923 57.5744 31.5298 57.4577C23.5673 54.7452 5.83398 43.4869 5.83398 24.3244C5.83398 15.866 12.6298 9.04102 21.0298 9.04102C26.0173 9.04102 30.4215 11.4327 33.1923 15.1368C35.9923 11.4327 40.3965 9.04102 45.3548 9.04102C53.7257 9.04102 60.5215 15.866 60.5215 24.3244Z" fill="#008CFF"/>
</svg>
