<svg width="144" height="40" viewBox="0 0 144 40" fill="none" xmlns="http://www.w3.org/2000/svg">
<path d="M39.7045 22.0569H35.8115V5.50041H39.7045V12.0844H44.2558V15.3784H39.7045V22.0569ZM27.0833 31.9349H35.8131V26.4798H27.0833V31.9349ZM23.2205 23.1854H39.7045V35.1959H23.2201L23.2205 23.1854ZM25.3877 14.9703C24.8541 16.1934 23.9747 17.4779 22.8762 18.6398C21.7456 19.8613 20.3628 20.9283 18.9498 21.7746L16.5 18.9217C18.2584 17.9177 19.9239 16.5371 21.1806 14.7809C22.4357 13.0565 23.2201 11.0503 23.2201 8.7928V6.15775H27.3027V8.72967C27.3027 10.9566 28.1185 12.837 29.3406 14.3741C30.5672 15.9738 32.2297 17.1655 33.8634 17.9487L31.6648 20.9279C28.6508 19.2964 26.6742 17.3529 25.3877 14.9695M65.8074 14.155H60.3118V10.7049H65.8074V5.5H69.7004V22.2145H65.8074V14.155ZM64.2998 26.6069C63.5795 25.9797 62.6372 25.603 61.507 25.603C59.2448 25.603 57.6756 27.0451 57.6756 29.178C57.6756 31.3419 59.2448 32.7844 61.507 32.7844C63.7675 32.7844 65.3999 31.3419 65.3999 29.178C65.4015 28.6973 65.3047 28.2213 65.1155 27.7792C64.9263 27.3371 64.6488 26.9382 64.2998 26.6069ZM67.0625 34.1948C65.6826 35.3551 63.7671 36.0455 61.507 36.0455C59.2448 36.0455 57.3615 35.3551 56.0118 34.1948C54.629 32.9718 53.8458 31.2787 53.8458 29.178C53.8458 27.1714 54.629 25.4771 56.0118 24.2553C57.3615 23.0323 59.2448 22.3102 61.507 22.3102C63.7675 22.3102 65.6826 23.0323 67.0625 24.2553C68.4123 25.4771 69.2297 27.1714 69.2297 29.178C69.2297 31.2792 68.4123 32.9718 67.0625 34.1948ZM56.5767 18.6081C55.4766 17.5724 54.629 16.4752 54.1269 15.4713C53.6566 16.5998 52.8102 17.8229 51.7101 18.9832C50.5794 20.1447 49.2313 21.3364 47.7221 22.2458L45.3053 19.3281C47.2204 18.0737 48.9474 16.6316 50.1103 14.9703C51.2712 13.3404 51.994 11.4584 51.994 9.32551V6.15734H56.1366V9.2632C56.1366 11.6148 56.8912 13.4337 58.1149 14.9076C59.2766 16.4129 60.9416 17.5414 62.6042 18.3877L60.4069 21.4301C59.0253 20.6778 57.6756 19.7049 56.5767 18.6081ZM80.7748 17.1957C80.7748 18.5433 81.8423 19.6104 83.5677 19.6104C85.3261 19.6104 86.3634 18.5433 86.3634 17.1952C86.3634 15.848 85.3261 14.7492 83.5677 14.7492C81.8423 14.7492 80.7748 15.848 80.7748 17.1957ZM79.6763 5.62463H87.3693V8.88566H79.6763V5.62463ZM81.6828 24.5343V22.4633C78.7023 21.806 77.0695 19.7049 77.0695 17.1957C77.0695 15.8162 77.7613 14.4686 78.8915 13.496H75.0916V10.3913H91.9834V13.4964H88.3099C89.4398 14.4991 90.1002 15.8484 90.1002 17.2592C90.1002 19.7354 88.5926 21.775 85.6104 22.4324V24.3457C88.2781 24.1898 90.9478 24.0004 93.5828 23.7185V5.5H97.4472V15.4081H101.842V18.7009H97.4472V31.8086H93.5828V26.8545C87.4602 27.5432 81.1823 28.0145 74.7445 28.2026L74.3688 24.6903C76.8186 24.6903 79.2374 24.6276 81.6824 24.5343M124.7 17.0079H122.315V30.7114H118.546V5.87673H122.315V13.7147H124.7V5.5H128.5V31.7772H124.7V17.0079ZM114.213 17.6652C115.187 19.5159 116.6 20.8648 118.327 22.0251L116.003 25.0043C114.905 24.2508 113.743 23.1536 112.832 22.0251C111.859 20.8965 111.106 19.7049 110.825 18.7323C109.946 21.4924 108.059 23.7181 105.674 25.5997L103.256 22.7456C105.141 21.1157 106.553 19.6735 107.463 17.7915C108.342 15.9425 108.783 13.6837 108.783 10.4541H104.198V7.19303H117.165V10.4541H112.676C112.676 13.4964 113.209 15.8162 114.213 17.6652Z" fill="#003CDC"/>
</svg>
