<svg width="91" height="66" viewBox="0 0 91 66" fill="none" xmlns="http://www.w3.org/2000/svg">
<path d="M75.6501 22.9967L75.1191 22.6609C73.3047 20.8484 70.7822 20.0626 67.4126 20.2654C64.6056 20.4365 62.3866 21.5519 60.686 22.5912C60.686 22.5658 60.686 22.5405 60.686 22.5151C60.686 21.6279 60.7871 20.6773 60.8883 19.7521C60.9894 18.8079 61.0906 17.851 61.0906 16.9448C61.0906 16.0386 60.9831 15.1387 60.667 14.3846C60.5848 14.1945 60.4141 14.074 60.1865 14.074C59.2825 14.0931 57.5123 14.7141 57.0824 15.0943L56.8485 15.6076C56.8359 16.6152 56.6146 19.4226 56.387 19.7648C56.3997 19.7521 56.2669 20.1007 56.2669 20.1007C55.8876 24.1121 55.8813 27.6419 56.2353 30.671C56.2732 30.9752 56.8548 31.4251 57.3037 31.5962C57.7968 31.78 59.3331 31.3618 60.2245 31.0259C60.2118 31.0259 60.5595 30.9689 60.5595 30.9689C60.8377 30.9372 61.0084 30.7027 60.9957 30.3795L61.021 29.5113C61.6596 26.8941 64.2579 23.7762 67.3304 23.3073C69.0689 23.0284 70.4345 23.4784 71.5219 24.6634C71.6736 24.8789 71.9834 26.761 70.8454 28.922C69.992 30.5253 68.285 31.8751 66.047 32.7116C63.9228 33.5227 61.59 33.8459 58.7072 33.7509C58.5871 33.6748 56.0014 31.9194 56.0014 31.9194C53.7128 30.3098 50.8742 28.3073 48.2948 27.3313C47.846 27.1602 47.0368 26.4822 46.5437 26.0766L46.2781 25.8548C44.7861 24.6634 41.9665 22.7686 39.6906 21.254C39.6906 21.254 38.6664 20.5633 38.4705 20.4302C38.4705 20.3478 38.4705 20.1704 38.4705 20.1704C38.54 20.1007 39.9625 19.2388 39.9625 19.2388C41.9602 18.0664 42.8832 17.4898 43.0792 17.1983C43.0413 17.249 43.3447 17.0398 43.3447 17.0398C43.3637 17.0335 48.2948 14.2325 48.2948 14.2325C53.049 11.6152 58.4353 8.64312 61.2613 5.70903L61.4004 5.25909L61.4636 4.85985C61.6532 4.23247 61.6596 3.75085 61.5015 3.19318C61.4636 3.03476 61.3182 2.85098 61.1159 2.81296C58.9095 2.59116 56.0583 3.92195 53.4662 6.36175C52.8783 6.91308 52.3852 7.17924 51.8731 7.46441L51.4748 7.68621C48.6173 9.31486 42.1752 13.3199 38.7992 15.4809C39.0205 11.8497 39.6906 6.67861 40.5188 2.36936L40.4303 1.85605L40.0762 1.20332L39.817 0.734375L39.7412 0.715364C39.0711 0.373159 38.521 0.512576 38.1164 0.61397L37.44 0.861118L36.5423 1.19065C36.3652 1.22233 36.2388 1.3364 36.1693 1.50751C34.5571 5.40484 33.2169 11.8244 32.9008 16.9574C29.6829 14.9042 26.7115 13.4277 25.2512 12.7179L25.2132 12.6989L25.0425 12.6609C24.5178 12.5975 23.873 12.2046 23.2597 11.8307C23.1965 11.7927 22.0333 11.0386 22.0333 11.0386L20.162 9.84084L19.6688 9.72677C18.8659 9.86619 17.3234 10.9055 16.8682 11.6089C16.805 11.704 16.786 11.8054 16.786 11.9067C16.786 12.0525 16.8303 12.2046 16.8682 12.3503L16.9504 12.7306L17.0389 12.9587C17.9366 13.8776 20.1936 15.4112 22.4126 16.6089L24.9856 17.9777L28.9116 20.1323L29.5817 20.6647L30.0496 20.9308C30.0496 20.9308 30.1001 20.9625 30.1317 20.9815C29.0823 21.6849 22.9752 25.7724 22.9752 25.7724L19.2073 28.2692C18.8533 28.5164 17.3676 29.1818 17.0389 29.3149C16.2233 29.6444 15.6038 30.1577 15.3509 30.7154L15.2498 30.9308L15.3509 31.0766L15.6417 31.292L16.0274 31.5455L16.4446 31.8307L16.8366 31.8941C17.5004 31.9194 18.474 31.5392 20.3137 30.7407C21.9953 29.9929 26.5661 27.2299 28.5196 26.0512L29.3541 25.5506C29.6955 25.5823 30.0748 25.2908 30.4162 25.031C30.8082 24.7141 31.6617 24.1881 32.1801 23.96C32.1927 23.96 32.4962 23.7889 32.768 23.6368C32.768 23.7255 32.768 23.8586 32.768 23.8586C32.8502 29.8535 33.1916 34.2071 33.8491 37.5658L33.8617 37.6228L33.9249 37.7559C34.2474 38.2249 34.614 39.6507 34.9365 40.8991L35.6825 43.4023L35.8911 43.6368C36.3147 43.9283 37.6107 44.4289 38.4768 44.3212L38.6917 44.2958L38.8308 43.9917C38.9004 43.6178 38.932 43.2502 38.932 42.8446C38.932 42.3884 38.9004 41.8814 38.8624 41.2667L38.7992 40.3668C38.5274 36.1843 38.2492 30.145 38.2492 26.1336V25.8168C38.9636 26.2604 42.0614 28.2185 42.0614 28.2185C47.3402 31.6533 55.3123 36.837 60.1233 38.2059C60.3762 38.2819 60.6417 38.2249 60.8251 38.0474C60.8314 38.0348 61.5647 37.5721 61.5647 37.5721L61.7101 37.5151C61.982 37.382 62.1716 36.9131 62.2032 36.4061C66.262 36.2033 71.9265 34.6317 74.9547 30.8168C76.1243 29.3339 76.6553 27.5215 76.6553 25.9689C76.6553 24.6951 76.3013 23.5988 75.6628 22.9967H75.6501Z" fill="#F7B400"/>
<path d="M0.5 51.5139H2.73167V57.775L10.2296 51.5139H13.3842L5.45645 57.832L14.0354 65.5063H10.887L2.72534 58.0095V65.5063H0.5V51.5203V51.5139ZM15.5969 51.5139H22.4563C25.7185 51.5139 27.4254 52.5976 27.4254 54.974C27.4254 56.6597 26.2495 57.8257 24.6817 58.1426V58.1996C26.926 58.4658 27.9881 59.9423 27.9881 61.609C27.9881 63.7002 26.4645 65.5 22.6713 65.5H15.5969V51.5139ZM17.8223 57.4075H22.3488C24.0305 57.4075 25.2696 56.7674 25.2696 55.2782C25.2696 53.9791 24.6564 53.1109 22.0896 53.1109H17.8223V57.4075ZM17.8223 63.9157H22.2098C24.9345 63.9157 25.6552 62.8511 25.6552 61.4949C25.6552 59.8853 24.5489 58.9981 22.0896 58.9981H17.8223V63.9157Z" fill="#7C7366"/>
<path d="M31.7495 60.3098V58.7889H38.1158V56.5329H39.8859V58.7889H46.17V60.3098H35.0875V63.8523H44.8677V65.3922H33.3237V60.3098H31.7495ZM88.717 51.2224H90.4999V58.5418H88.717V56.3555H86.5549C86.4475 56.7484 86.2704 57.0716 86.0176 57.3567C85.752 57.6609 85.4296 57.9081 85.0756 58.0855C84.6836 58.282 84.2727 58.4277 83.8112 58.5164C83.3307 58.6242 82.8249 58.6622 82.3255 58.6622C81.7186 58.6622 81.1686 58.6052 80.6502 58.4657C80.1128 58.358 79.6703 58.1616 79.2783 57.8954C78.8863 57.6419 78.5639 57.3377 78.349 56.9512C78.1151 56.5899 78.0076 56.1463 78.0076 55.6457C78.0076 55.1451 78.1151 54.7142 78.349 54.3403C78.5639 53.979 78.8484 53.6622 79.2404 53.4087H77.7231V51.8878H81.4341V50.6013H83.2043V51.8878H86.8963V53.4087H85.4106C85.6825 53.5861 85.9101 53.8016 86.1061 54.0171C86.2831 54.2706 86.4095 54.5367 86.517 54.8219H88.717V51.2287V51.2224ZM90.4999 65.3922H79.2973V59.6128H90.4999V65.3922ZM82.3508 57.1666C82.6732 57.1666 82.9893 57.1349 83.2928 57.0589C83.5773 57.0082 83.8428 56.9005 84.0767 56.7547C84.2917 56.628 84.4497 56.4505 84.5951 56.2351C84.7152 56.0386 84.7911 55.7851 84.7911 55.5C84.7911 55.2148 84.7216 54.9676 84.5951 54.7522C84.4497 54.5557 84.2917 54.3783 84.0767 54.2325C83.8428 54.1058 83.5773 53.9981 83.2928 53.9283C82.9893 53.8776 82.6669 53.8396 82.3508 53.8396C81.9904 53.8396 81.668 53.8776 81.3899 53.9283C81.0864 53.9981 80.8335 54.1058 80.6249 54.2325C80.391 54.3783 80.214 54.5557 80.0875 54.7522C79.9484 54.9676 79.8915 55.2148 79.8915 55.5C79.8915 55.7851 79.9484 56.0386 80.0875 56.2351C80.214 56.4505 80.391 56.628 80.6249 56.7547C80.8398 56.9005 81.0864 57.0082 81.3899 57.0589C81.6743 57.1349 81.9968 57.1666 82.3508 57.1666ZM88.755 61.159H81.0674V63.8396H88.755V61.159ZM62.3101 63.0918H68.5562V60.1578H70.3264V63.0918H76.465V64.6318H62.3164V63.0918H62.3101ZM75.1248 51.5899V59.3212H63.8463V51.5899H65.5975V53.827H73.3799V51.5899H75.1311H75.1248ZM73.3736 55.3479H65.5912V57.8193H73.3736V55.3479ZM54.6604 53.5608H53.2822C53.6426 53.9537 53.9208 54.4353 54.142 55.012C54.357 55.6077 54.4645 56.2984 54.4645 57.1223C54.4645 57.8764 54.376 58.5354 54.1989 59.0931C54.0219 59.6635 53.769 60.1324 53.4656 60.4873C53.1432 60.8802 52.7828 61.1654 52.3782 61.3428C51.9483 61.5392 51.5184 61.628 51.0569 61.628C50.5954 61.628 50.1465 61.5392 49.7356 61.3428C49.312 61.1654 48.9517 60.8802 48.6609 60.4873C48.3448 60.1324 48.1108 59.6635 47.9338 59.0931C47.7568 58.5354 47.662 57.8764 47.662 57.1223C47.662 56.2984 47.7695 55.6013 47.9844 55.012C48.1804 54.4417 48.4649 53.9537 48.8252 53.5608H47.4534V52.0399H50.1655V50.7534H51.9357V52.0399H54.6668V53.5608H54.6604ZM51.0569 60.069C51.4868 60.069 51.8408 59.8346 52.1443 59.3339C52.4288 58.8713 52.5931 58.0982 52.5931 57.0589C52.5931 56.0196 52.4351 55.2718 52.1443 54.7712C51.8408 54.3086 51.4868 54.0551 51.0569 54.0551C50.627 54.0551 50.273 54.3022 49.9822 54.7712C49.6787 55.2718 49.5396 56.0259 49.5396 57.0589C49.5396 58.0918 49.6787 58.884 49.9822 59.3466C50.2666 59.8282 50.627 60.0627 51.0569 60.0627V60.069ZM58.8709 51.2351H60.5842V65.4366H58.8709V57.2807H57.3915V64.9866H55.6783V51.2287H57.3915V55.7344H58.8709V51.2287V51.2351ZM38.0336 51.197H39.9997V51.5583C40.0693 52.1096 40.2526 52.5785 40.4992 52.9714C40.7331 53.3834 41.0176 53.7256 41.3716 53.9917C41.694 54.2769 42.067 54.4924 42.459 54.6761C42.832 54.8536 43.2113 54.9993 43.5843 55.088C43.9383 55.1958 44.2797 55.2845 44.6021 55.3225C44.9056 55.3796 45.1585 55.4112 45.3355 55.4302V56.9702C44.8866 56.9512 44.3872 56.8814 43.8372 56.7547C43.2682 56.647 42.6802 56.4886 42.1049 56.2541C41.517 56.0386 40.9607 55.7661 40.4296 55.4112C39.8733 55.088 39.4118 54.6571 39.0198 54.1565C38.6278 54.6571 38.1663 55.069 37.629 55.4112C37.0916 55.7661 36.5416 56.0386 35.9663 56.2541C35.3783 56.4822 34.8094 56.647 34.253 56.7547C33.684 56.8624 33.1846 56.9321 32.7547 56.9702V55.4302C32.9317 55.4112 33.1783 55.3732 33.5007 55.3035C33.8042 55.2718 34.1456 55.1768 34.5185 55.069C34.8726 54.9613 35.2519 54.8219 35.6439 54.6381C36.0169 54.4797 36.3709 54.2452 36.7123 53.96C37.0284 53.6939 37.3002 53.3517 37.5468 52.9588C37.7807 52.5659 37.9387 52.1033 38.0273 51.5646V51.2034L38.0336 51.197Z" fill="#7C7366"/>
</svg>
