<svg width="410" height="340" viewBox="0 0 410 340" fill="none" xmlns="http://www.w3.org/2000/svg">
<mask id="mask0_1328_6923" style="mask-type:alpha" maskUnits="userSpaceOnUse" x="0" y="0" width="88" height="88">
<circle cx="44" cy="44" r="43.5" fill="#F7F8F9" stroke="white"/>
</mask>
<g mask="url(#mask0_1328_6923)">
<path d="M79.835 0H8.165C3.65559 0 0 3.65559 0 8.165V79.835C0 84.3444 3.65559 88 8.165 88H79.835C84.3444 88 88 84.3444 88 79.835V8.165C88 3.65559 84.3444 0 79.835 0Z" fill="#F7F8F9"/>
</g>
<mask id="mask1_1328_6923" style="mask-type:alpha" maskUnits="userSpaceOnUse" x="13" y="13" width="62" height="62">
<circle cx="44" cy="44" r="30.5" fill="#F7F8F9" stroke="white"/>
</mask>
<g mask="url(#mask1_1328_6923)">
</g>
<g clip-path="url(#clip0_1328_6923)">
<rect width="62" height="62" transform="translate(13 13)" fill="#F7F8F9"/>
<path d="M72.8611 54.0774C68.6884 66.1245 57.2416 74.774 43.7751 74.774C38.8412 74.774 34.1786 73.6133 30.0448 71.5496C23.6864 59.3994 18.603 46.6061 14.8837 33.3758C14.2595 31.1575 13.6741 28.9255 13.1278 26.6833C12.5349 24.2515 14.0636 21.8071 16.5092 21.2708C19.4673 20.6227 22.4241 19.9732 25.3822 19.3238C33.6409 17.5126 41.8985 15.7001 50.1573 13.8888C50.5178 13.8097 50.8795 13.7305 51.24 13.6514C51.7286 13.5446 52.2172 13.4366 52.7071 13.3299C54.0838 13.0285 55.4504 13.3965 56.4691 14.223C57.2002 14.8133 57.7517 15.6399 57.9965 16.6221C58.004 16.6522 58.0115 16.6836 58.0204 16.7138C58.5529 18.8416 59.1308 20.9555 59.7538 23.0545C60.5099 25.5993 61.3314 28.1215 62.2183 30.6199C65.0934 38.7254 68.6544 46.5722 72.8611 54.0774Z" fill="#F2F2F2"/>
<path d="M59.7538 23.0545L47.6414 56.5744L45.0312 42.7775L51.2401 13.6514C51.7287 13.5446 52.2173 13.4366 52.7073 13.3299C54.084 13.0285 55.4505 13.3965 56.4693 14.223C57.2003 14.8133 57.7518 15.6399 57.9966 16.6221C58.0041 16.6522 58.0117 16.6836 58.0205 16.7138C58.5531 18.8415 59.1308 20.9555 59.7538 23.0545Z" fill="#D5D4E2"/>
<path d="M72.8609 54.0778C68.6882 66.1249 57.2414 74.7744 43.7749 74.7744C38.841 74.7744 34.1784 73.6137 30.0446 71.55C28.7018 68.9851 27.4169 66.3913 26.1897 63.7711C27.4131 64.6253 28.7006 65.3926 30.0446 66.0635C34.1784 68.1273 38.841 69.2879 43.7749 69.2879C56.0394 69.2879 66.6294 62.1131 71.5735 51.7314C71.9955 52.5177 72.4251 53.299 72.8609 54.0778Z" fill="#D5D4E2"/>
<path d="M22.672 35.8694C21.8631 35.8694 21.1154 35.3444 20.8692 34.53C20.5681 33.5339 21.1313 32.4823 22.1275 32.1813L54.5346 22.3838C55.531 22.0828 56.5823 22.6461 56.8833 23.6421C57.1843 24.6382 56.6211 25.6898 55.625 25.9908L23.2179 35.7883C23.0361 35.8431 22.8526 35.8694 22.672 35.8694Z" fill="#D5D4E2"/>
<path d="M27.4462 47.1747C26.6853 47.1747 25.9686 46.7105 25.6836 45.9565C25.3156 44.9832 25.8061 43.8958 26.7795 43.5278L56.6744 32.2229C57.6475 31.8548 58.7351 32.3455 59.1031 33.3188C59.4711 34.2922 58.9806 35.3796 58.0072 35.7476L28.1123 47.0524C27.8928 47.1354 27.6676 47.1747 27.4462 47.1747Z" fill="#D5D4E2"/>
<path d="M33.0367 59.3581C32.328 59.3581 31.649 58.9563 31.3288 58.2719C30.8879 57.3293 31.2946 56.2078 32.2371 55.7669L50.7645 47.0998C51.707 46.6589 52.8285 47.0655 53.2696 48.0081C53.7105 48.9507 53.3038 50.0723 52.3612 50.5132L33.8339 59.1803C33.5757 59.301 33.3041 59.3581 33.0367 59.3581Z" fill="#D5D4E2"/>
<path d="M61.8199 47.3062L54.9036 51.8275L47.6416 56.5745L47.3934 47.9021L47.1575 39.6426L50.5281 39.7902L59.589 40.1897L61.8199 47.3062Z" fill="#D5D4E2"/>
<path d="M47.6418 56.5745L47.3936 47.9021L47.1577 39.6426L50.5284 39.7902L51.949 43.0521L47.6418 56.5745Z" fill="#CBCBD3"/>
<path d="M74.6749 22.7125L71.7246 28.357L57.0623 20.6932L60.0125 15.0488C60.7429 13.6512 62.4678 13.1106 63.8652 13.841L73.4669 18.8597C74.8645 19.5903 75.4052 21.3151 74.6749 22.7125Z" fill="#CF3067"/>
<path d="M74.6748 22.7125L71.7246 28.3569L61.5388 23.033L64.489 17.3886C65.2195 15.9912 66.9443 15.4505 68.3417 16.1808L73.4672 18.8596C74.8645 19.5902 75.4051 21.315 74.6748 22.7125Z" fill="#F14881"/>
<path d="M71.6567 28.4873L61.82 47.3069C59.7958 46.2489 57.2964 47.0323 56.2384 49.0565C57.2964 47.0323 56.5131 44.5329 54.4889 43.4749C52.4647 42.4169 49.9653 43.2003 48.9073 45.2245C49.9653 43.2003 49.1819 40.7009 47.1577 39.6429L56.9944 20.8232L71.6567 28.4873Z" fill="#2176C4"/>
<path d="M71.6568 28.4873L61.8201 47.3069C59.7959 46.249 57.2966 47.0323 56.2386 49.0565C57.2966 47.0323 56.5132 44.5329 54.489 43.4749L64.3257 24.6553L71.6568 28.4873Z" fill="#72BAED"/>
<path d="M67.991 26.5713L56.2384 49.0566C57.2964 47.0324 56.513 44.533 54.4888 43.475C52.4646 42.417 49.9652 43.2003 48.9072 45.2246L60.6599 22.7393L67.991 26.5713Z" fill="#55ACE5"/>
<path d="M72.565 28.9615C72.3398 29.3924 71.9624 29.6906 71.5338 29.825C71.1051 29.9595 70.6248 29.9298 70.1941 29.7047L56.8293 22.7193C55.9691 22.2696 55.6365 21.2087 56.0861 20.3484C56.3113 19.9175 56.6886 19.6193 57.1173 19.4848C57.546 19.3504 58.0262 19.3801 58.457 19.6052L71.8217 26.5907C72.6821 27.0402 73.0147 28.1013 72.565 28.9615Z" fill="#CBCBD3"/>
<path d="M72.565 28.9617C72.3397 29.3926 71.9624 29.6909 71.5337 29.8253C71.1051 29.9597 70.6248 29.93 70.1941 29.7049L60.8518 24.8218C59.9916 24.3722 59.6589 23.3113 60.1085 22.4509C60.3338 22.02 60.7111 21.7218 61.1398 21.5874C61.5684 21.453 62.0487 21.4826 62.4794 21.7077L71.8217 26.5909C72.6821 27.0405 73.0147 28.1015 72.565 28.9617Z" fill="#D5D4E2"/>
<path d="M54.9038 51.8277L47.6417 56.5745L47.3936 47.9023C48.3535 47.8736 49.3288 48.0052 50.2755 48.3084C50.7457 48.4582 51.2084 48.6508 51.6599 48.8868C53.0238 49.5994 54.1186 50.6244 54.9038 51.8277Z" fill="#454A5B"/>
<path d="M47.6417 56.5745L47.3936 47.9023C48.3535 47.8736 49.3288 48.0052 50.2755 48.3084L47.6417 56.5745Z" fill="#33384A"/>
</g>
<path d="M121.166 8.62109V13.1035H123.328V14.9492H121.166V20.082H118.898V8.62109H121.166ZM116.807 9.81641C116.807 14.1406 114.1 17.1641 109.301 18.5176L108.369 16.7422C111.946 15.7402 113.977 13.8857 114.346 11.6445H109.072V9.81641H116.807ZM121.711 22.543V24.3359H110.76V18.9043H113.027V22.543H121.711ZM137.514 8.62109V20.3984H135.281V16.4609H133.242V14.6152H135.281V13.2266H133.242V11.4336H135.281V8.62109H137.514ZM132.961 9.76367V11.5566H131.643V16.4082C132.179 16.373 132.706 16.3203 133.207 16.2676L133.295 17.9023C130.307 18.3945 126.791 18.4648 124.26 18.4648L124.031 16.6367C124.559 16.6367 125.139 16.6279 125.736 16.6191V11.5566H124.436V9.76367H132.961ZM137.9 22.543V24.3359H126.879V19.5195H129.129V22.543H137.9ZM127.898 16.584C128.426 16.5752 128.962 16.5576 129.498 16.5312V11.5566H127.898V16.584ZM152.279 8.63867V13.543H154.441V15.3711H152.279V20.5742H150.029V8.63867H152.279ZM149.08 10.3086V12.084H139.588V10.3086H143.227V8.60352H145.459V10.3086H149.08ZM144.334 12.6465C146.654 12.6465 148.271 13.8945 148.271 15.7402C148.271 17.5859 146.654 18.7988 144.334 18.7988C141.996 18.7988 140.361 17.5859 140.361 15.7402C140.361 13.8945 141.996 12.6465 144.334 12.6465ZM144.334 14.3516C143.262 14.3691 142.541 14.8613 142.559 15.7402C142.541 16.6191 143.262 17.0938 144.334 17.0938C145.406 17.0938 146.145 16.6191 146.145 15.7402C146.145 14.8613 145.406 14.3691 144.334 14.3516ZM152.859 22.543V24.3359H141.908V19.6602H144.141V22.543H152.859ZM172.775 8.62109V18.1133H170.543V14.334H168.047V12.5234H170.543V8.62109H172.775ZM167.309 18.4648C170.719 18.4824 172.811 19.6074 172.828 21.5586C172.811 23.4922 170.719 24.6348 167.309 24.6348C163.898 24.6348 161.807 23.4922 161.807 21.5586C161.807 19.6074 163.898 18.4824 167.309 18.4648ZM167.309 20.1875C165.182 20.1875 164.039 20.627 164.039 21.5586C164.039 22.4727 165.182 22.9297 167.309 22.9297C169.436 22.9297 170.596 22.4727 170.596 21.5586C170.596 20.627 169.436 20.1875 167.309 20.1875ZM168.521 9.58789V11.3809H165.34C165.393 13.2441 166.518 15.125 169.014 15.9512L167.906 17.709C166.14 17.1377 164.927 15.9775 164.232 14.5273C163.521 16.1621 162.246 17.4805 160.348 18.1309L159.188 16.3555C161.815 15.4766 162.993 13.3848 163.055 11.3809H159.838V9.58789H168.521ZM189.492 20.9258V22.7539H174.85V20.9258H181.02V17.9727H176.396V9.64062H178.646V12.1191H185.625V9.64062H187.857V17.9727H183.252V20.9258H189.492ZM178.646 16.1797H185.625V13.9121H178.646V16.1797ZM207.949 8.62109V17.2168H205.699V8.62109H207.949ZM199.459 17.9199V19.4141H205.717V17.9199H207.949V24.4414H197.244V17.9199H199.459ZM199.459 22.6309H205.717V21.1543H199.459V22.6309ZM199.178 9.28906C201.674 9.27148 203.555 10.8359 203.555 13.0859C203.555 15.2656 201.674 16.8301 199.178 16.8301C196.682 16.8301 194.801 15.2656 194.801 13.0859C194.801 10.8359 196.682 9.27148 199.178 9.28906ZM199.178 11.1523C197.895 11.1523 196.98 11.873 196.998 13.0859C196.98 14.2812 197.895 14.9844 199.178 14.9844C200.426 14.9844 201.34 14.2812 201.34 13.0859C201.34 11.873 200.426 11.1523 199.178 11.1523ZM217.793 9.55273V14.5449H212.959V16.25C215.341 16.25 216.747 16.1709 218.373 15.8633L218.584 17.6562C216.721 17.9902 215.033 18.043 211.939 18.043H210.744V12.875H215.543V11.3105H210.709V9.55273H217.793ZM223.594 8.63867V18.4824H221.361V16.0215H218.707V14.2461H221.361V12.6289H218.707V10.8535H221.361V8.63867H223.594ZM223.594 19.2031V24.6172H221.361V20.9961H212.572V19.2031H223.594Z" fill="#282828"/>
<path d="M119.422 41.3906V45.5938H121.516V46.625H119.422V51.5938H118.203V41.3906H119.422ZM120.062 53.9375V54.9688H110.734V50.5938H111.938V53.9375H120.062ZM110.359 42.3906V44.7344H114.406V42.3906H115.625V49.25H109.156V42.3906H110.359ZM110.359 48.25H114.406V45.7031H110.359V48.25ZM133.891 41.375V55.2969H132.672V49.375H129.781V48.3438H132.672V45.5781H129.891V44.5469H132.672V41.375H133.891ZM128.984 42.6406V47.5781H124.141V51C126.227 50.9922 127.953 50.9141 130.062 50.5938L130.172 51.625C127.953 51.9688 126.172 52.0469 123.953 52.0469H122.922V46.5781H127.781V43.6562H122.875V42.6406H128.984ZM148.891 48.25V49.2344H136.219V48.25H141.953V46.625H137.828V42.0312H147.312V43.0156H139.031V45.625H147.406V46.625H143.141V48.25H148.891ZM142.547 50.25C145.531 50.25 147.312 51.1562 147.328 52.75C147.312 54.3594 145.531 55.25 142.547 55.2656C139.547 55.25 137.75 54.3594 137.75 52.75C137.75 51.1562 139.547 50.25 142.547 50.25ZM142.547 51.2188C140.312 51.2188 138.984 51.7969 139 52.75C138.984 53.7188 140.312 54.2812 142.547 54.2812C144.75 54.2812 146.094 53.7188 146.094 52.75C146.094 51.7969 144.75 51.2188 142.547 51.2188ZM162.703 47.25V48.25H156.969V49.625H161.078V52.7344H152.828V54.1406H161.5V55.1094H151.609V51.8125H159.875V50.5781H151.578V49.625H155.75V48.25H150.047V47.25H162.703ZM161.062 41.8438V46.0781H151.688V41.8438H161.062ZM152.906 42.8281V45.0938H159.844V42.8281H152.906ZM171.578 42.9219V43.6406C171.562 44.7344 171.562 46.5781 171.172 49.1562L169.938 49.0469C170.312 46.7188 170.344 45.0312 170.344 43.9219H164.516V42.9219H171.578ZM167.938 46.8906V51.1094C169.477 51.0547 171.055 50.9531 172.5 50.7812L172.562 51.7031C169.641 52.1562 166.375 52.2188 163.891 52.2031L163.734 51.1875C164.648 51.1797 165.664 51.1719 166.734 51.1406V46.8906H167.938ZM174.594 41.375V47.1875H176.844V48.25H174.594V55.2656H173.375V41.375H174.594ZM194.438 52.4688V53.4844H181.719V52.4688H187.438V49.4688H183.219V42.3594H184.453V44.875H191.672V42.3594H192.875V49.4688H188.641V52.4688H194.438ZM184.453 48.4688H191.672V45.875H184.453V48.4688ZM207.547 43.4375V44.4531H196.172V43.4375H201.266V41.6094H202.469V43.4375H207.547ZM208.266 52.625V53.6406H195.547V52.625H201.266V50.6719C198.797 50.5391 197.297 49.5781 197.312 48.0156C197.297 46.3594 199.047 45.3906 201.875 45.4062C204.672 45.3906 206.438 46.3594 206.438 48.0156C206.438 49.5781 204.922 50.5391 202.469 50.6719V52.625H208.266ZM201.875 46.375C199.797 46.375 198.531 46.9844 198.547 48.0156C198.531 49.0781 199.797 49.6719 201.875 49.6875C203.922 49.6719 205.188 49.0781 205.188 48.0156C205.188 46.9844 203.922 46.375 201.875 46.375ZM214.078 45.6406C214.062 47.875 215.672 50.3281 217.688 51.2812L216.984 52.25C215.422 51.4922 214.102 49.8359 213.484 47.9531C212.844 50 211.445 51.7969 209.891 52.5938L209.141 51.625C211.141 50.6562 212.859 48.0156 212.875 45.6406V43.8281H209.641V42.8125H217.203V43.8281H214.078V45.6406ZM220.125 41.375V47H222.453V48.0469H220.125V55.2656H218.906V41.375H220.125ZM238.734 41.375V49.6562H237.5V46.0156H234.703V45H237.5V41.375H238.734ZM234.125 50.0938C237.016 50.0938 238.781 51.0312 238.781 52.6719C238.781 54.3125 237.016 55.25 234.125 55.2656C231.234 55.25 229.469 54.3125 229.469 52.6719C229.469 51.0312 231.234 50.0938 234.125 50.0938ZM234.125 51.0469C232 51.0469 230.672 51.6562 230.688 52.6719C230.672 53.6719 232 54.2812 234.125 54.2812C236.25 54.2812 237.562 53.6719 237.562 52.6719C237.562 51.6562 236.25 51.0469 234.125 51.0469ZM232.047 43.9219C232.047 45.7344 233.438 47.4531 235.469 48.1562L234.828 49.1406C233.266 48.5781 232.055 47.4141 231.469 45.9688C230.859 47.6016 229.57 48.9062 227.922 49.5312L227.281 48.5469C229.344 47.7969 230.812 45.9219 230.812 43.9375V43.4219H227.672V42.3906H235.156V43.4219H232.047V43.9219ZM253.766 52.4688V53.4844H241.047V52.4688H246.766V49.4688H242.547V42.3594H243.781V44.875H251V42.3594H252.203V49.4688H247.969V52.4688H253.766ZM243.781 48.4688H251V45.875H243.781V48.4688ZM267.578 47.8281V48.7969H254.859V47.8281H267.578ZM265.984 49.9062V52.8594H257.641V54.1875H266.438V55.0781H256.406V52.0156H264.766V50.8281H256.391V49.9062H265.984ZM265.938 41.7969V44.6719H257.734V45.8906H266.188V46.7812H256.516V43.8281H264.703V42.6875H256.469V41.7969H265.938ZM284.188 41.375V48.8281H282.969V41.375H284.188ZM276.406 49.5312V51.2188H282.969V49.5312H284.188V55.0781H275.188V49.5312H276.406ZM276.406 54.0781H282.969V52.2031H276.406V54.0781ZM276.688 42.0625C278.797 42.0469 280.328 43.3438 280.328 45.25C280.328 47.1406 278.797 48.4375 276.688 48.4375C274.578 48.4375 273.047 47.1406 273.047 45.25C273.047 43.3438 274.578 42.0469 276.688 42.0625ZM276.688 43.0938C275.266 43.0781 274.234 43.9844 274.25 45.25C274.234 46.5156 275.266 47.4219 276.688 47.4219C278.094 47.4219 279.125 46.5156 279.125 45.25C279.125 43.9844 278.094 43.0781 276.688 43.0938ZM293.141 42.2344V46.125H288.359V48.2812C290.969 48.2812 292.312 48.2422 293.953 47.9375L294.078 48.9531C292.344 49.2344 290.938 49.2812 288.125 49.2812H287.141V45.1875H291.922V43.2188H287.109V42.2344H293.141ZM298.062 41.3906V49.9219H296.828V47.3438H294.062V46.3281H296.828V44.4531H294.062V43.4531H296.828V41.3906H298.062ZM298.062 50.6719V55.2969H296.828V51.6719H288.703V50.6719H298.062ZM316.312 42.9688V43.9844H305.047V42.9688H310.109V41.2969H311.312V42.9688H316.312ZM317.109 50.375V51.3906H311.312V55.2969H310.109V51.3906H304.391V50.375H317.109ZM310.719 44.7812C313.547 44.7812 315.25 45.6094 315.25 47.1094C315.25 48.5781 313.547 49.4062 310.719 49.4219C307.875 49.4062 306.172 48.5781 306.188 47.1094C306.172 45.6094 307.875 44.7812 310.719 44.7812ZM310.719 45.7188C308.641 45.7188 307.438 46.2344 307.453 47.1094C307.438 47.9688 308.641 48.4688 310.719 48.4688C312.766 48.4688 313.969 47.9688 313.984 47.1094C313.969 46.2344 312.766 45.7188 310.719 45.7188ZM120.391 65.375V74.9219H119.219V65.375H120.391ZM117.812 65.6875V73.6406H116.656V70.2656H114.797V69.25H116.656V65.6875H117.812ZM115.281 66.5781V67.6094H114.062V71.8594C114.602 71.8203 115.125 71.7734 115.609 71.7188L115.656 72.6406C113.422 73.0312 110.5 73.0469 108.641 73.0469L108.5 72.0156C108.93 72.0156 109.422 72.0156 109.953 72V67.6094H108.75V66.5781H115.281ZM116.359 74.75C116.359 76.5312 118.734 77.9219 121.188 78.25L120.703 79.2031C118.617 78.8828 116.594 77.8672 115.75 76.3594C114.891 77.8672 112.891 78.8828 110.781 79.2031L110.328 78.25C112.766 77.9219 115.125 76.5312 115.125 74.75V74.3125H116.359V74.75ZM111.109 71.9844C111.703 71.9766 112.312 71.9531 112.922 71.9219V67.6094H111.109V71.9844ZM135.109 76.4688V77.4844H122.391V76.4688H128.109V73.4688H123.891V66.3594H125.125V68.875H132.344V66.3594H133.547V73.4688H129.312V76.4688H135.109ZM125.125 72.4688H132.344V69.875H125.125V72.4688ZM147.734 65.375V73.7969H146.5V70.625H144.141V69.6094H146.5V65.375H147.734ZM147.734 74.5469V79.0781H138.656V74.5469H147.734ZM139.875 75.5312V78.0781H146.531V75.5312H139.875ZM144.344 66.8438V67.8438H136.234V66.8438H139.688V65.25H140.891V66.8438H144.344ZM140.281 68.5625C142.172 68.5625 143.5 69.5781 143.516 71.0312C143.5 72.5312 142.172 73.5156 140.281 73.5156C138.391 73.5156 137.062 72.5312 137.062 71.0312C137.062 69.5781 138.391 68.5625 140.281 68.5625ZM140.281 69.5156C139.078 69.5156 138.234 70.1406 138.234 71.0312C138.234 71.9531 139.078 72.5625 140.281 72.5781C141.484 72.5625 142.328 71.9531 142.328 71.0312C142.328 70.1406 141.484 69.5156 140.281 69.5156ZM165.516 65.375V79.2969H164.281V65.375H165.516ZM156.094 66.5625V70.2344H160.234V66.5625H161.438V75.9375H154.875V66.5625H156.094ZM156.094 74.9062H160.234V71.2188H156.094V74.9062ZM179.047 66.7812V68.3281C179.047 70.1094 179.047 71.9062 178.547 74.4844L177.344 74.3438C177.844 71.8906 177.844 70.0625 177.844 68.3281V67.7969H169.219V66.7812H179.047ZM180.547 76.2812V77.2969H167.891V76.2812H171.031V71.7031H172.25V76.2812H174.5V71.7031H175.703V76.2812H180.547ZM197.25 65.3906V75.75H196.016V72.3906H192.281V71.375H196.016V69.2656H192.469C191.492 71.4609 189.359 73.1328 186.516 74.0469L185.969 73.0625C189.219 71.9922 191.453 69.9922 191.719 67.4844H186.656V66.4688H193.062C193.062 67.0938 192.977 67.6953 192.828 68.2656H196.016V65.3906H197.25ZM197.609 77.9375V78.9688H188.406V74.7188H189.656V77.9375H197.609ZM204.391 67.9375C204.391 69.75 205.781 71.4688 207.812 72.1719L207.172 73.1406C205.602 72.5781 204.391 71.4141 203.797 69.9844C203.195 71.5859 201.914 72.8672 200.266 73.4688L199.625 72.5C201.672 71.7656 203.156 69.9062 203.156 67.9531V67.3438H200.016V66.3438H207.5V67.3438H204.391V67.9375ZM211.078 74.4375V79.2656H209.844V75.4531H201.734V74.4375H211.078ZM211.078 65.375V73.7031H209.844V70.0469H207.062V69.0156H209.844V65.375H211.078ZM218.281 69.1094C218.281 71.625 219.891 74.1562 221.906 75.0781L221.172 76.0781C219.594 75.2656 218.289 73.6016 217.672 71.625C217.055 73.7031 215.75 75.4844 214.172 76.3281L213.375 75.3438C215.406 74.3438 217.031 71.6719 217.031 69.1094V66.5781H218.281V69.1094ZM224.906 65.375V79.2969H223.688V71.125H220.391V70.125H223.688V65.375H224.906ZM239.922 71.8281V72.7969H227.203V71.8281H239.922ZM238.328 73.9062V76.8594H229.984V78.1875H238.781V79.0781H228.75V76.0156H237.109V74.8281H228.734V73.9062H238.328ZM238.281 65.7969V68.6719H230.078V69.8906H238.531V70.7812H228.859V67.8281H237.047V66.6875H228.812V65.7969H238.281ZM256.531 65.3906V75.5781H255.312V65.3906H256.531ZM256.969 77.9375V78.9688H247.562V74.6406H248.781V77.9375H256.969ZM249.984 67.5625C249.969 69.6719 251.422 71.5781 253.484 72.3281L252.844 73.3125C251.234 72.6953 249.984 71.4453 249.375 69.8438C248.758 71.5469 247.492 72.9141 245.875 73.5625L245.203 72.6094C247.312 71.7969 248.734 69.75 248.734 67.5625V66.1719H249.984V67.5625ZM263.625 68.3594C263.625 70.0938 265.125 71.6406 267.172 72.25L266.578 73.2031C264.969 72.7266 263.68 71.6719 263.062 70.2969C262.453 71.8203 261.188 73.0156 259.531 73.5625L258.938 72.625C260.984 71.9375 262.422 70.25 262.422 68.3594V68.0625H259.281V67.0781H262.422V65.3125H263.656V67.0781H266.766V68.0625H263.625V68.3594ZM270.406 65.375V73.7969H269.172V70.375H266.328V69.3594H269.172V65.375H270.406ZM265.797 74.1719C268.688 74.1719 270.453 75.0781 270.453 76.7031C270.453 78.3125 268.688 79.2344 265.797 79.2344C262.906 79.2344 261.141 78.3125 261.141 76.7031C261.141 75.0781 262.906 74.1719 265.797 74.1719ZM265.797 75.125C263.672 75.1406 262.344 75.7188 262.359 76.7031C262.344 77.6719 263.672 78.2656 265.797 78.2656C267.938 78.2656 269.234 77.6719 269.234 76.7031C269.234 75.7188 267.938 75.1406 265.797 75.125ZM283.469 65.375V71.1094H285.797V72.125H283.469V79.2656H282.25V65.375H283.469ZM280.906 67.6094V68.625H272.641V67.6094H276.219V65.5469H277.438V67.6094H280.906ZM276.844 69.7812C278.812 69.7812 280.234 71.0938 280.25 72.9688C280.234 74.8438 278.812 76.1562 276.844 76.1562C274.859 76.1562 273.422 74.8438 273.438 72.9688C273.422 71.0938 274.859 69.7812 276.844 69.7812ZM276.844 70.8125C275.547 70.8125 274.594 71.7188 274.609 72.9688C274.594 74.2344 275.547 75.125 276.844 75.1094C278.125 75.125 279.062 74.2344 279.078 72.9688C279.062 71.7188 278.125 70.8125 276.844 70.8125ZM290.672 69.3281C290.672 71.5312 291.75 73.9219 293.594 75.0156L292.891 75.9688C291.555 75.1562 290.594 73.6719 290.109 71.9844C289.594 73.8281 288.562 75.4141 287.172 76.2656L286.391 75.3438C288.312 74.2188 289.484 71.75 289.484 69.375V66.6875H290.672V69.3281ZM298.453 65.375V79.2656H297.266V65.375H298.453ZM295.578 65.6719V78.5625H294.422V71.4062H292.062V70.3594H294.422V65.6719H295.578ZM313.094 76.4531V77.4844H300.375V76.4531H303.531V72.7031C302.344 72.0859 301.625 71.0859 301.625 69.8281C301.625 67.6719 303.734 66.2656 306.703 66.25C309.672 66.2656 311.781 67.6719 311.781 69.8281C311.781 71.0625 311.086 72.0547 309.938 72.6719V76.4531H313.094ZM306.703 67.2656C304.422 67.25 302.812 68.2812 302.812 69.8281C302.812 71.375 304.422 72.4219 306.703 72.4219C308.969 72.4219 310.594 71.375 310.594 69.8281C310.594 68.2812 308.969 67.25 306.703 67.2656ZM304.734 76.4531H308.703V73.1406C308.102 73.3047 307.43 73.3906 306.703 73.3906C305.992 73.3906 305.328 73.3125 304.734 73.1562V76.4531Z" fill="#646F7C"/>
<mask id="mask2_1328_6923" style="mask-type:alpha" maskUnits="userSpaceOnUse" x="0" y="126" width="88" height="88">
<circle cx="44" cy="170" r="43.5" fill="#F7F8F9" stroke="white"/>
</mask>
<g mask="url(#mask2_1328_6923)">
<path d="M79.835 126H8.165C3.65559 126 0 129.656 0 134.165V205.835C0 210.344 3.65559 214 8.165 214H79.835C84.3444 214 88 210.344 88 205.835V134.165C88 129.656 84.3444 126 79.835 126Z" fill="#F7F8F9"/>
<g clip-path="url(#clip1_1328_6923)">
<rect x="13" y="139" width="62" height="62" rx="31" fill="#F7F8F9"/>
<path d="M69.2474 139H18.7526C15.5755 139 13 141.576 13 144.753V195.247C13 198.424 15.5755 201 18.7526 201H69.2474C72.4245 201 75 198.424 75 195.247V144.753C75 141.576 72.4245 139 69.2474 139Z" fill="#FFEB3B"/>
<path d="M39.9031 167.411L38.7864 170.56H41.0162L39.9031 167.411ZM39.9031 167.411L38.7864 170.56H41.0162L39.9031 167.411ZM44 154C33.3015 154 24.625 160.792 24.625 169.172C24.625 174.594 28.2499 179.346 33.7066 182.03C30.9976 191.313 29.4053 191.919 40.5583 184.109C41.6985 184.269 42.8486 184.349 44 184.348C54.6985 184.348 63.375 177.553 63.375 169.172C63.375 160.792 54.6985 154 44 154ZM33.2874 174.471C31.3534 174.471 32.4948 171.797 32.1707 166.816C31.4661 166.696 29.3278 167.295 29.3278 165.727C29.3297 165.438 29.4461 165.162 29.6514 164.958C29.8568 164.755 30.1344 164.641 30.4234 164.642C34.4886 164.931 37.2434 163.885 37.2434 165.727C37.2434 167.323 35.1861 166.682 34.4041 166.816C34.08 171.779 35.2178 174.471 33.2874 174.471ZM43.7992 174.301C42.0625 175.091 42.0202 173.312 41.6045 172.54H38.1981C37.7789 173.329 37.7436 175.105 36.0034 174.301C34.6965 173.703 36.8242 170.662 38.413 165.734C38.5146 165.419 38.7135 165.145 38.9809 164.95C39.2483 164.756 39.5706 164.651 39.9013 164.651C40.2321 164.651 40.5543 164.756 40.8217 164.95C41.0891 165.145 41.288 165.419 41.3897 165.734C43.0101 170.758 45.1132 173.703 43.7992 174.301ZM45.8635 174.301C43.993 174.301 45.1308 171.776 44.8067 165.741C44.8067 164.272 47.0894 164.276 47.0894 165.741V172.272C48.1674 172.417 50.5347 171.74 50.5347 173.29C50.5206 174.929 47.9772 174.101 45.8635 174.309V174.301ZM56.1992 173.981L53.5783 170.529L53.1908 170.916V173.343C53.1908 173.49 53.1618 173.635 53.1054 173.771C53.049 173.906 52.9664 174.029 52.8623 174.133C52.7581 174.236 52.6346 174.318 52.4987 174.374C52.3629 174.429 52.2173 174.457 52.0706 174.456C50.1295 174.456 51.292 171.659 50.9539 165.748C50.9557 165.453 51.0742 165.171 51.2834 164.963C51.4926 164.755 51.7756 164.639 52.0706 164.639C53.758 164.639 53.0288 167.024 53.1873 168.137C56.3577 165.111 56.2767 164.79 56.9284 164.79C57.8267 164.79 58.3762 165.907 57.7774 166.499L55.2305 169.028L57.9817 172.649C58.88 173.822 57.0869 175.161 56.1992 173.988V173.981ZM38.7864 170.56H41.0162L39.9031 167.411L38.7864 170.56ZM39.9031 167.411L38.7864 170.56H41.0162L39.9031 167.411ZM39.9031 167.411L38.7864 170.56H41.0162L39.9031 167.411Z" fill="#3E2723"/>
</g>
</g>
<path d="M116.631 135.658V142.672H108.949V135.658H116.631ZM111.164 137.434V140.896H114.416V137.434H111.164ZM121.166 134.621V138.102H123.328V139.93H121.166V143.586H118.916V134.621H121.166ZM121.359 144.342V146.117H117.264C117.642 147.312 119.224 148.499 122.062 148.877L121.271 150.582C118.705 150.239 116.895 149.211 115.98 147.84C115.058 149.211 113.256 150.222 110.707 150.547L109.898 148.842C112.781 148.49 114.328 147.348 114.697 146.117H110.584V144.342H121.359ZM138.621 142.303V144.078H132.416V145.309H136.881V150.441H125.719V145.309H130.201V144.078H124.031V142.303H138.621ZM132.416 134.621V135.992H137.215V137.75H132.609C132.882 138.857 134.517 139.851 137.971 140.053L137.32 141.705C134.358 141.503 132.311 140.694 131.309 139.438C130.298 140.694 128.25 141.503 125.297 141.705L124.646 140.053C128.127 139.851 129.727 138.857 130.025 137.75H125.438V135.992H130.201V134.621H132.416ZM127.934 147.084V148.648H134.684V147.084H127.934ZM157.201 134.639V146.434H154.986V143.094H151.33V141.301H154.986V139.508H151.559C150.416 141.942 148.096 143.744 144.879 144.711L143.947 142.971C147.357 141.89 149.502 139.991 149.906 137.627H144.809V135.834H152.35C152.35 136.484 152.279 137.117 152.156 137.715H154.986V134.639H157.201ZM157.623 148.543V150.336H146.672V145.256H148.957V148.543H157.623ZM168.521 135.518V137.293H165.34C165.357 139.183 166.482 141.116 169.014 141.951L167.906 143.674C166.131 143.111 164.918 141.951 164.232 140.51C163.512 142.109 162.237 143.401 160.348 144.008L159.205 142.232C161.833 141.389 163.028 139.288 163.055 137.293H159.838V135.518H168.521ZM172.775 144.852V150.617H170.543V146.645H161.789V144.852H172.775ZM172.775 134.621V144.148H170.543V140.299H168.064V138.471H170.543V134.621H172.775ZM180.896 138.242C180.896 141.248 182.109 144.166 184.781 145.326L183.41 147.119C181.635 146.249 180.448 144.658 179.789 142.689C179.086 144.781 177.855 146.495 176.027 147.4L174.621 145.572C177.363 144.342 178.611 141.248 178.629 138.242V135.852H180.896V138.242ZM188.35 134.621V150.652H186.135V141.459H182.988V139.648H186.135V134.621H188.35ZM197.262 135.342V137.24H200.531V135.342H202.781V142.32H195.029V135.342H197.262ZM197.262 140.562H200.531V138.928H197.262V140.562ZM207.246 134.621V137.732H209.408V139.543H207.246V142.76H204.996V134.621H207.246ZM207.246 143.357V147.699H198.861V148.736H207.703V150.512H196.664V146.1H205.014V145.098H196.629V143.357H207.246ZM218.496 140.281V142.25H224.701V144.043H210.111V142.25H216.281V140.281H218.496ZM218.531 135.412C218.531 137.275 220.324 139.051 223.928 139.49L223.066 141.23C220.368 140.826 218.382 139.692 217.371 138.084C216.343 139.692 214.356 140.835 211.658 141.23L210.867 139.49C214.4 139.051 216.246 137.223 216.246 135.412V134.885H218.531V135.412ZM217.389 144.922C220.869 144.922 222.943 145.959 222.961 147.787C222.943 149.615 220.869 150.617 217.389 150.617C213.873 150.617 211.781 149.615 211.781 147.787C211.781 145.959 213.873 144.922 217.389 144.922ZM217.389 146.627C215.156 146.627 214.049 146.996 214.066 147.787C214.049 148.578 215.156 148.947 217.389 148.947C219.568 148.947 220.693 148.578 220.711 147.787C220.693 146.996 219.568 146.627 217.389 146.627Z" fill="#282828"/>
<path d="M120.391 167.375V176.922H119.219V167.375H120.391ZM117.812 167.688V175.641H116.656V172.266H114.797V171.25H116.656V167.688H117.812ZM115.281 168.578V169.609H114.062V173.859C114.602 173.82 115.125 173.773 115.609 173.719L115.656 174.641C113.422 175.031 110.5 175.047 108.641 175.047L108.5 174.016C108.93 174.016 109.422 174.016 109.953 174V169.609H108.75V168.578H115.281ZM116.359 176.75C116.359 178.531 118.734 179.922 121.188 180.25L120.703 181.203C118.617 180.883 116.594 179.867 115.75 178.359C114.891 179.867 112.891 180.883 110.781 181.203L110.328 180.25C112.766 179.922 115.125 178.531 115.125 176.75V176.312H116.359V176.75ZM111.109 173.984C111.703 173.977 112.312 173.953 112.922 173.922V169.609H111.109V173.984ZM135.109 178.469V179.484H122.391V178.469H128.109V175.469H123.891V168.359H125.125V170.875H132.344V168.359H133.547V175.469H129.312V178.469H135.109ZM125.125 174.469H132.344V171.875H125.125V174.469ZM147.734 167.375V175.797H146.5V172.625H144.141V171.609H146.5V167.375H147.734ZM147.734 176.547V181.078H138.656V176.547H147.734ZM139.875 177.531V180.078H146.531V177.531H139.875ZM144.344 168.844V169.844H136.234V168.844H139.688V167.25H140.891V168.844H144.344ZM140.281 170.562C142.172 170.562 143.5 171.578 143.516 173.031C143.5 174.531 142.172 175.516 140.281 175.516C138.391 175.516 137.062 174.531 137.062 173.031C137.062 171.578 138.391 170.562 140.281 170.562ZM140.281 171.516C139.078 171.516 138.234 172.141 138.234 173.031C138.234 173.953 139.078 174.562 140.281 174.578C141.484 174.562 142.328 173.953 142.328 173.031C142.328 172.141 141.484 171.516 140.281 171.516ZM165.516 167.375V181.297H164.281V167.375H165.516ZM156.094 168.562V172.234H160.234V168.562H161.438V177.938H154.875V168.562H156.094ZM156.094 176.906H160.234V173.219H156.094V176.906ZM179.047 168.781V170.328C179.047 172.109 179.047 173.906 178.547 176.484L177.344 176.344C177.844 173.891 177.844 172.062 177.844 170.328V169.797H169.219V168.781H179.047ZM180.547 178.281V179.297H167.891V178.281H171.031V173.703H172.25V178.281H174.5V173.703H175.703V178.281H180.547ZM197.203 167.391V177.578H195.984V167.391H197.203ZM197.641 179.938V180.969H188.234V176.641H189.453V179.938H197.641ZM190.656 169.562C190.641 171.672 192.094 173.578 194.156 174.328L193.516 175.312C191.906 174.695 190.656 173.445 190.047 171.844C189.43 173.547 188.164 174.914 186.547 175.562L185.875 174.609C187.984 173.797 189.406 171.75 189.406 169.562V168.172H190.656V169.562ZM204.297 170.359C204.297 172.094 205.797 173.641 207.844 174.25L207.25 175.203C205.641 174.727 204.352 173.672 203.734 172.297C203.125 173.82 201.859 175.016 200.203 175.562L199.609 174.625C201.656 173.938 203.094 172.25 203.094 170.359V170.062H199.953V169.078H203.094V167.312H204.328V169.078H207.438V170.062H204.297V170.359ZM211.078 167.375V175.797H209.844V172.375H207V171.359H209.844V167.375H211.078ZM206.469 176.172C209.359 176.172 211.125 177.078 211.125 178.703C211.125 180.312 209.359 181.234 206.469 181.234C203.578 181.234 201.812 180.312 201.812 178.703C201.812 177.078 203.578 176.172 206.469 176.172ZM206.469 177.125C204.344 177.141 203.016 177.719 203.031 178.703C203.016 179.672 204.344 180.266 206.469 180.266C208.609 180.266 209.906 179.672 209.906 178.703C209.906 177.719 208.609 177.141 206.469 177.125ZM224.844 167.375V181.297H223.609V167.375H224.844ZM217.453 168.453C219.516 168.469 221 170.344 221 173.297C221 176.25 219.516 178.125 217.453 178.125C215.375 178.125 213.906 176.25 213.906 173.297C213.906 170.344 215.375 168.469 217.453 168.453ZM217.453 169.547C216.062 169.562 215.094 171.031 215.094 173.297C215.094 175.562 216.062 177.031 217.453 177.031C218.844 177.031 219.812 175.562 219.812 173.297C219.812 171.031 218.844 169.562 217.453 169.547ZM242.734 167.375V174.922H241.516V171.781H238.703V170.75H241.516V167.375H242.734ZM235.031 175.594V177.328H241.516V175.594H242.734V181.078H233.797V175.594H235.031ZM235.031 180.078H241.516V178.312H235.031V180.078ZM236.062 169.641C236.062 171.422 237.453 173.172 239.484 173.875L238.844 174.828C237.273 174.258 236.062 173.094 235.469 171.656C234.867 173.266 233.586 174.555 231.938 175.156L231.297 174.188C233.344 173.453 234.828 171.609 234.828 169.641V169.234H231.688V168.219H239.172V169.234H236.062V169.641ZM252.031 168.672C252.031 170.625 254.594 172.328 257.094 172.672L256.594 173.672C254.438 173.312 252.305 172.117 251.406 170.406C250.516 172.125 248.375 173.312 246.219 173.672L245.719 172.672C248.219 172.328 250.766 170.656 250.766 168.672V167.875H252.031V168.672ZM257.719 175.203V176.234H251.969V181.266H250.766V176.234H245.062V175.203H257.719ZM267.172 173.375V174.391H264.125V177.125C265.484 177.07 266.852 176.977 268.141 176.828L268.234 177.75C265.156 178.203 261.797 178.25 259.141 178.25L258.969 177.219C260.18 177.219 261.523 177.211 262.906 177.172V174.391H260.031V168.703H267.109V169.703H261.234V173.375H267.172ZM270.281 167.375V181.297H269.062V167.375H270.281ZM279.75 168.594V169.828H283V167.391H284.234V177.531H283V173.828H279.75V175.078H273.375V168.594H279.75ZM274.594 169.609V174.094H278.547V169.609H274.594ZM284.547 179.938V180.969H275.25V176.625H276.484V179.938H284.547ZM279.75 172.812H283V170.859H279.75V172.812ZM115.766 192.828C115.75 196.844 114.391 200.516 109.391 202.969L108.703 202.031C111.32 200.766 112.891 199.156 113.734 197.281L108.969 197.734L108.766 196.656L114.109 196.297C114.352 195.516 114.492 194.695 114.547 193.844H109.469V192.828H115.766ZM119.312 191.375V197.031H121.562V198.062H119.312V205.266H118.094V191.375H119.312ZM129.594 192.828C129.578 196.844 128.219 200.516 123.219 202.969L122.531 202.031C125.148 200.766 126.719 199.156 127.562 197.281L122.797 197.734L122.594 196.656L127.938 196.297C128.18 195.516 128.32 194.695 128.375 193.844H123.297V192.828H129.594ZM133.141 191.375V197.031H135.391V198.062H133.141V205.266H131.922V191.375H133.141ZM142.547 192.281C145.5 192.297 147.625 193.734 147.625 195.922C147.625 197.992 145.781 199.367 143.141 199.531V202.453H148.938V203.484H136.219V202.453H141.938V199.531C139.305 199.359 137.469 197.984 137.469 195.922C137.469 193.734 139.594 192.297 142.547 192.281ZM142.547 193.297C140.297 193.297 138.656 194.359 138.656 195.922C138.656 197.531 140.297 198.562 142.547 198.578C144.797 198.562 146.438 197.531 146.438 195.922C146.438 194.359 144.797 193.297 142.547 193.297ZM162.703 198.875V199.875H150.031V198.875H155.75V197.391H151.719V191.75H161.125V192.734H152.953V194.062H160.75V195.016H152.953V196.438H161.203V197.391H156.969V198.875H162.703ZM161.062 201.109V205.266H159.812V202.109H151.453V201.109H161.062ZM170.203 192.281C173.109 192.281 175.281 193.797 175.281 196.094C175.281 198.406 173.109 199.922 170.203 199.906C167.297 199.922 165.125 198.406 165.125 196.094C165.125 193.797 167.297 192.281 170.203 192.281ZM170.203 193.281C167.969 193.266 166.281 194.438 166.297 196.094C166.281 197.781 167.969 198.906 170.203 198.906C172.422 198.906 174.094 197.781 174.094 196.094C174.094 194.438 172.422 193.266 170.203 193.281ZM176.594 202.391V203.422H163.875V202.391H176.594ZM190.422 202.516V203.547H177.703V202.516H183.422V199.891H179.297V195.609H187.609V193.422H179.266V192.406H188.812V196.609H180.516V198.875H189.141V199.891H184.625V202.516H190.422ZM202.562 192.328V198.266H196.141V192.328H202.562ZM197.344 193.328V197.266H201.375V193.328H197.344ZM206.406 191.375V194.719H208.5V195.75H206.406V199.312H205.188V191.375H206.406ZM206.656 200.125V201.125H202.719C202.852 202.609 204.922 203.906 207.188 204.266L206.734 205.219C204.703 204.883 202.859 203.875 202.062 202.484C201.273 203.883 199.445 204.875 197.422 205.203L196.953 204.266C199.25 203.906 201.281 202.633 201.438 201.125H197.5V200.125H206.656ZM222.031 198.25V199.25H216.297V200.781H220.484V205.078H210.922V200.781H215.094V199.25H209.375V198.25H222.031ZM216.297 191.297V192.688H220.75V193.672H216.375C216.461 195.219 218.672 196.258 221.281 196.5L220.922 197.422C218.609 197.18 216.547 196.383 215.703 195C214.852 196.383 212.789 197.18 210.484 197.422L210.109 196.5C212.734 196.258 214.93 195.219 215.031 193.672H210.688V192.688H215.094V191.297H216.297ZM212.141 201.766V204.078H219.281V201.766H212.141ZM238.734 191.391V201.75H237.5V198.391H233.766V197.375H237.5V195.266H233.953C232.977 197.461 230.844 199.133 228 200.047L227.453 199.062C230.703 197.992 232.938 195.992 233.203 193.484H228.141V192.469H234.547C234.547 193.094 234.461 193.695 234.312 194.266H237.5V191.391H238.734ZM239.094 203.938V204.969H229.891V200.719H231.141V203.938H239.094ZM245.875 193.938C245.875 195.75 247.266 197.469 249.297 198.172L248.656 199.141C247.086 198.578 245.875 197.414 245.281 195.984C244.68 197.586 243.398 198.867 241.75 199.469L241.109 198.5C243.156 197.766 244.641 195.906 244.641 193.953V193.344H241.5V192.344H248.984V193.344H245.875V193.938ZM252.562 200.438V205.266H251.328V201.453H243.219V200.438H252.562ZM252.562 191.375V199.703H251.328V196.047H248.547V195.016H251.328V191.375H252.562ZM259.766 195.109C259.766 197.625 261.375 200.156 263.391 201.078L262.656 202.078C261.078 201.266 259.773 199.602 259.156 197.625C258.539 199.703 257.234 201.484 255.656 202.328L254.859 201.344C256.891 200.344 258.516 197.672 258.516 195.109V192.578H259.766V195.109ZM266.391 191.375V205.297H265.172V197.125H261.875V196.125H265.172V191.375H266.391ZM281.406 197.828V198.797H268.688V197.828H281.406ZM279.812 199.906V202.859H271.469V204.188H280.266V205.078H270.234V202.016H278.594V200.828H270.219V199.906H279.812ZM279.766 191.797V194.672H271.562V195.891H280.016V196.781H270.344V193.828H278.531V192.688H270.297V191.797H279.766ZM288.344 191.969V193.969H292.391V191.969H293.609V198.016H287.141V191.969H288.344ZM288.344 197.016H292.391V194.922H288.344V197.016ZM297.406 191.375V194.391H299.5V195.422H297.406V198.562H296.188V191.375H297.406ZM297.406 199.219V202.578H289.781V204.109H297.922V205.109H288.578V201.641H296.188V200.203H288.547V199.219H297.406ZM307.297 196.234V198.281H313.031V199.281H300.375V198.281H306.094V196.234H307.297ZM307.312 192.25C307.312 194.094 309.812 195.641 312.266 195.984L311.766 196.969C309.656 196.602 307.57 195.484 306.703 193.875C305.828 195.492 303.734 196.602 301.609 196.969L301.141 195.984C303.594 195.641 306.078 194.094 306.078 192.25V191.594H307.312V192.25ZM306.703 200.438C309.688 200.438 311.469 201.297 311.484 202.844C311.469 204.391 309.688 205.234 306.703 205.234C303.688 205.234 301.906 204.391 301.906 202.844C301.906 201.297 303.688 200.438 306.703 200.438ZM306.703 201.406C304.453 201.406 303.141 201.922 303.156 202.844C303.141 203.75 304.453 204.281 306.703 204.281C308.922 204.281 310.25 203.75 310.25 202.844C310.25 201.922 308.922 201.406 306.703 201.406ZM321.141 193.781V194.781H314.172V193.781H317.062V191.797H318.281V193.781H321.141ZM317.656 195.719C319.406 195.719 320.656 197.031 320.672 198.875C320.656 200.734 319.406 202.062 317.656 202.062C315.922 202.062 314.672 200.734 314.672 198.875C314.672 197.031 315.922 195.719 317.656 195.719ZM317.656 196.75C316.562 196.766 315.766 197.656 315.766 198.875C315.766 200.109 316.562 201 317.656 200.984C318.766 201 319.578 200.109 319.578 198.875C319.578 197.656 318.766 196.766 317.656 196.75ZM326.031 191.375V205.266H324.859V198.25H323.016V204.578H321.859V191.719H323.016V197.234H324.859V191.375H326.031ZM339.25 198.062V199.078H329.656V192.672H339.109V193.688H330.875V198.062H339.25ZM340.75 202.344V203.375H328.031V202.344H340.75ZM353.359 191.375V205.297H352.141V199.375H349.25V198.344H352.141V195.578H349.359V194.547H352.141V191.375H353.359ZM348.453 192.641V197.578H343.609V201C345.695 200.992 347.422 200.914 349.531 200.594L349.641 201.625C347.422 201.969 345.641 202.047 343.422 202.047H342.391V196.578H347.25V193.656H342.344V192.641H348.453ZM368.406 202.453V203.484H355.688V202.453H358.844V198.703C357.656 198.086 356.938 197.086 356.938 195.828C356.938 193.672 359.047 192.266 362.016 192.25C364.984 192.266 367.094 193.672 367.094 195.828C367.094 197.062 366.398 198.055 365.25 198.672V202.453H368.406ZM362.016 193.266C359.734 193.25 358.125 194.281 358.125 195.828C358.125 197.375 359.734 198.422 362.016 198.422C364.281 198.422 365.906 197.375 365.906 195.828C365.906 194.281 364.281 193.25 362.016 193.266ZM360.047 202.453H364.016V199.141C363.414 199.305 362.742 199.391 362.016 199.391C361.305 199.391 360.641 199.312 360.047 199.156V202.453Z" fill="#646F7C"/>
<mask id="mask3_1328_6923" style="mask-type:alpha" maskUnits="userSpaceOnUse" x="0" y="252" width="88" height="88">
<circle cx="44" cy="296" r="43.5" fill="#F7F8F9" stroke="white"/>
</mask>
<g mask="url(#mask3_1328_6923)">
<path d="M79.835 252H8.165C3.65559 252 0 255.656 0 260.165V331.835C0 336.344 3.65559 340 8.165 340H79.835C84.3444 340 88 336.344 88 331.835V260.165C88 255.656 84.3444 252 79.835 252Z" fill="#F7F8F9"/>
</g>
<g clip-path="url(#clip2_1328_6923)">
<rect width="61" height="61" transform="translate(13 266)" fill="#F7F8F9"/>
<path d="M74 296.5C74 313.345 60.3447 327 43.5 327C41.5082 327 39.5599 326.809 37.6751 326.445C30.2107 325.001 23.7173 320.836 19.268 315.024C18.1028 313.503 17.077 311.868 16.2118 310.14C14.1565 306.036 13 301.402 13 296.5C13 279.655 26.6553 266 43.5 266C60.3447 266 74 279.655 74 296.5Z" fill="#F7F8F9"/>
<path d="M50.611 313.509L37.6752 326.445C28.2575 324.623 20.3848 318.47 16.2119 310.14L31.7271 294.625L50.611 313.509Z" fill="#FFD0A7"/>
<path d="M35.697 298.595L19.2681 315.024C18.1029 313.503 17.0771 311.868 16.2119 310.14L31.7271 294.625L35.697 298.595Z" fill="#E8B790"/>
<path d="M40.1477 273.874C42.4536 274.535 43.7874 276.938 43.1259 279.244C42.3033 282.117 41.514 283.158 41.514 283.158L55.9401 268.732C56.682 267.99 57.6548 267.619 58.6291 267.619C59.6033 267.619 60.5762 267.99 61.3181 268.732C62.8024 270.216 62.8031 272.623 61.32 274.108L64.7042 270.724C66.1894 269.239 68.5973 269.239 70.0826 270.724C71.5678 272.209 71.5678 274.617 70.0826 276.102L65.8893 280.296C67.3745 278.81 69.7825 278.81 71.2677 280.296C72.7529 281.781 72.7529 284.189 71.2677 285.674L65.8218 291.12C67.307 289.635 69.7149 289.635 71.2001 291.12C72.6853 292.605 72.6853 295.013 71.2001 296.498L58.3568 309.341C52.5739 315.124 42.1433 318.136 35.5762 311.569C35.5762 311.569 30.8927 306.885 27.5664 303.559C18.6686 294.661 30.9299 282.282 30.9299 282.282C30.9299 282.282 34.1414 279.074 34.7782 276.853C35.4379 274.548 37.8417 273.214 40.1477 273.874Z" fill="#FFD0A7"/>
<path d="M61.9112 269.496C61.3186 269.149 60.653 268.975 59.9865 268.975C59.0124 268.975 58.0391 269.347 57.2972 270.089L38.0666 289.319C37.7071 289.679 37.1271 289.692 36.7537 289.347C36.7469 289.34 36.74 289.334 36.7332 289.327C36.3396 288.962 36.3292 288.343 36.7089 287.963L55.9402 268.732C56.6821 267.99 57.6554 267.618 58.6295 267.618C59.6034 267.618 60.5768 267.99 61.3187 268.732C61.5531 268.966 61.7499 269.223 61.9112 269.496Z" fill="#E8B790"/>
<path d="M70.6751 271.488C70.0825 271.141 69.4169 270.967 68.7504 270.967C67.7763 270.967 66.803 271.339 66.0612 272.08L46.8304 291.311C46.4709 291.671 45.8909 291.683 45.5176 291.338C45.5108 291.332 45.5039 291.326 45.4971 291.319C45.1035 290.954 45.0931 290.334 45.4728 289.955L64.7039 270.723C65.4458 269.982 66.4191 269.61 67.3931 269.61C68.3671 269.61 69.3405 269.982 70.0824 270.723C70.317 270.958 70.5138 271.215 70.6751 271.488Z" fill="#E8B790"/>
<path d="M71.86 281.06C71.2674 280.713 70.6018 280.539 69.9353 280.539C68.9612 280.539 67.988 280.91 67.2461 281.652L48.0156 300.883C47.656 301.242 47.0761 301.255 46.7027 300.91C46.6959 300.904 46.689 300.897 46.6822 300.891C46.2885 300.526 46.2782 299.906 46.6579 299.526L65.8891 280.295C66.631 279.553 67.6042 279.182 68.5783 279.182C69.5523 279.182 70.5257 279.553 71.2676 280.295C71.502 280.53 71.6987 280.787 71.86 281.06Z" fill="#E8B790"/>
<path d="M71.7925 291.884C71.1999 291.537 70.5342 291.363 69.8677 291.363C68.8936 291.363 67.9204 291.735 67.1785 292.477L57.7187 301.937C57.3592 302.296 56.7792 302.309 56.4058 301.964C56.399 301.957 56.3921 301.951 56.3853 301.945C55.9917 301.58 55.9813 300.96 56.361 300.58L65.8212 291.12C66.5631 290.378 67.5364 290.006 68.5105 290.006C69.4845 290.006 70.4578 290.378 71.1997 291.12C71.4344 291.354 71.6311 291.611 71.7925 291.884Z" fill="#E8B790"/>
<path d="M29.15 305.142L27.5668 303.558C18.6691 294.661 30.9307 282.281 30.9307 282.281C30.9549 282.257 34.1439 279.065 34.7787 276.852C35.4384 274.547 37.8419 273.214 40.148 273.874C41.2737 274.196 42.1677 274.935 42.7112 275.873C42.4097 275.698 42.0817 275.557 41.7312 275.457C39.425 274.797 37.0214 276.13 36.3619 278.435C35.7271 280.648 32.538 283.841 32.5139 283.865C32.5139 283.865 20.2524 296.244 29.15 305.142Z" fill="#E8B790"/>
<path d="M47.0439 309.201C38.8876 304.246 35.3857 299.144 35.3857 295.043C35.3857 293.175 36.1125 291.515 37.4569 290.171C38.7606 288.867 40.4699 288.215 42.1788 288.215C43.5793 288.215 44.9799 288.653 46.1576 289.529C46.3821 289.695 46.5983 289.878 46.8049 290.077L46.9012 290.171L47.046 290.313L47.2872 290.077H47.2828C47.332 290.029 47.3818 289.983 47.4325 289.937C50.0542 287.565 54.1033 287.643 56.6302 290.171C57.1044 290.645 57.5013 291.158 57.8166 291.706L57.8171 291.706C60.3617 296.123 57.6044 302.785 47.0439 309.201Z" fill="#FC3683"/>
<path d="M47.0437 309.201C38.8872 304.246 35.386 299.144 35.386 295.044C35.386 293.175 36.1131 291.515 37.4565 290.17C38.7604 288.867 40.4696 288.215 42.1787 288.215C42.6723 288.215 43.1649 288.269 43.6479 288.378C43.0093 288.646 42.4025 289.244 41.9046 290.17C41.1838 291.515 40.7947 293.175 40.7947 295.044C40.7946 299.144 42.6711 304.246 47.0437 309.201Z" fill="#E52679"/>
</g>
<path d="M114.381 264.98C114.363 267.424 115.664 270.236 118.301 271.449L117.053 273.207C115.269 272.39 113.994 270.755 113.291 268.83C112.57 270.948 111.261 272.741 109.406 273.611L108.105 271.836C110.777 270.588 112.113 267.617 112.131 264.98V263.996H108.738V262.168H117.598V263.996H114.381V264.98ZM121.096 260.621V266.721H123.451V268.602H121.096V276.617H118.846V260.621H121.096ZM129.164 264.646C129.164 267.23 129.885 269.902 132.064 271.309L130.852 273.049C129.472 272.214 128.593 270.843 128.092 269.199C127.512 271.01 126.554 272.521 125.104 273.4L123.732 271.748C126.105 270.271 126.984 267.459 126.984 264.752V261.992H129.164V264.646ZM137.9 260.621V276.617H135.756V260.621H137.9ZM134.543 260.85V275.879H132.451V267.846H130.377V266.018H132.451V260.85H134.543ZM152.279 260.639V265.543H154.441V267.371H152.279V272.574H150.029V260.639H152.279ZM149.08 262.309V264.084H139.588V262.309H143.227V260.604H145.459V262.309H149.08ZM144.334 264.646C146.654 264.646 148.271 265.895 148.271 267.74C148.271 269.586 146.654 270.799 144.334 270.799C141.996 270.799 140.361 269.586 140.361 267.74C140.361 265.895 141.996 264.646 144.334 264.646ZM144.334 266.352C143.262 266.369 142.541 266.861 142.559 267.74C142.541 268.619 143.262 269.094 144.334 269.094C145.406 269.094 146.145 268.619 146.145 267.74C146.145 266.861 145.406 266.369 144.334 266.352ZM152.859 274.543V276.336H141.908V271.66H144.141V274.543H152.859ZM172.775 260.639V272.311H170.543V266.58H167.924V264.77H170.543V260.639H172.775ZM173.162 274.543V276.336H162.158V271.291H164.408V274.543H173.162ZM165.34 263.768C165.34 265.613 166.465 267.6 169.014 268.426L167.906 270.201C166.131 269.63 164.918 268.461 164.215 267.002C163.512 268.619 162.237 269.902 160.348 270.535L159.205 268.707C161.842 267.881 163.037 265.789 163.055 263.75V263.504H159.838V261.711H168.521V263.504H165.34V263.768ZM189.475 268.531V270.307H183.445V273.066H181.23V270.307H174.832V268.531H189.475ZM187.594 261.324V267.213H176.66V261.324H187.594ZM178.857 263.064V265.473H185.396V263.064H178.857ZM187.857 274.543V276.336H176.555V271.678H178.787V274.543H187.857ZM203.027 260.621V266.756H205.295V268.602H203.027V276.582H200.777V260.621H203.027ZM198.756 262.256C198.738 267.037 196.875 271.186 191.496 273.822L190.23 272.1C194.019 270.201 196.049 267.652 196.471 264.084H191.145V262.256H198.756ZM215.947 263.135C215.947 265.068 217.072 266.932 219.604 267.723L218.408 269.463C216.712 268.9 215.525 267.811 214.84 266.404C214.146 268.021 212.906 269.287 211.078 269.902L209.865 268.145C212.537 267.248 213.68 265.121 213.697 262.924V261.465H215.947V263.135ZM222.803 260.621V264.365H224.965V266.229H222.803V270.113H220.553V260.621H222.803ZM217.564 270.43C220.869 270.43 222.961 271.572 222.961 273.523C222.961 275.492 220.869 276.617 217.564 276.617C214.189 276.617 212.08 275.492 212.08 273.523C212.08 271.572 214.189 270.43 217.564 270.43ZM217.564 272.188C215.455 272.188 214.312 272.645 214.33 273.523C214.312 274.438 215.455 274.859 217.564 274.859C219.639 274.859 220.746 274.438 220.746 273.523C220.746 272.645 219.639 272.188 217.564 272.188ZM238.359 260.621V264.225H240.521V266.07H238.359V269.604H236.109V260.621H238.359ZM233.42 261.623V263.398H228.533V267.213C231.425 267.195 233.016 267.09 234.809 266.721L235.037 268.479C233.033 268.936 231.188 269.006 227.637 269.006H226.283V261.623H233.42ZM238.359 270.271V276.424H227.9V270.271H238.359ZM230.115 272.047V274.666H236.145V272.047H230.115Z" fill="#282828"/>
<path d="M115.766 294.828C115.75 298.844 114.391 302.516 109.391 304.969L108.703 304.031C111.32 302.766 112.891 301.156 113.734 299.281L108.969 299.734L108.766 298.656L114.109 298.297C114.352 297.516 114.492 296.695 114.547 295.844H109.469V294.828H115.766ZM119.312 293.375V299.031H121.562V300.062H119.312V307.266H118.094V293.375H119.312ZM129.594 294.828C129.578 298.844 128.219 302.516 123.219 304.969L122.531 304.031C125.148 302.766 126.719 301.156 127.562 299.281L122.797 299.734L122.594 298.656L127.938 298.297C128.18 297.516 128.32 296.695 128.375 295.844H123.297V294.828H129.594ZM133.141 293.375V299.031H135.391V300.062H133.141V307.266H131.922V293.375H133.141ZM142.547 294.281C145.5 294.297 147.625 295.734 147.625 297.922C147.625 299.992 145.781 301.367 143.141 301.531V304.453H148.938V305.484H136.219V304.453H141.938V301.531C139.305 301.359 137.469 299.984 137.469 297.922C137.469 295.734 139.594 294.297 142.547 294.281ZM142.547 295.297C140.297 295.297 138.656 296.359 138.656 297.922C138.656 299.531 140.297 300.562 142.547 300.578C144.797 300.562 146.438 299.531 146.438 297.922C146.438 296.359 144.797 295.297 142.547 295.297ZM162.703 300.875V301.875H150.031V300.875H155.75V299.391H151.719V293.75H161.125V294.734H152.953V296.062H160.75V297.016H152.953V298.438H161.203V299.391H156.969V300.875H162.703ZM161.062 303.109V307.266H159.812V304.109H151.453V303.109H161.062ZM180.594 300.484V301.5H174.938V304.344H173.719V301.5H167.875V300.484H180.594ZM178.938 294.062V298.891H169.531V294.062H178.938ZM170.734 295.031V297.906H177.719V295.031H170.734ZM179.172 305.938V306.969H169.5V302.969H170.734V305.938H179.172ZM186.266 294.391C188.453 294.391 190 295.719 190 297.656C190 299.594 188.453 300.922 186.266 300.922C184.078 300.922 182.5 299.594 182.516 297.656C182.5 295.719 184.078 294.391 186.266 294.391ZM186.266 295.469C184.781 295.469 183.703 296.359 183.719 297.656C183.703 298.953 184.781 299.844 186.266 299.844C187.734 299.844 188.797 298.953 188.797 297.656C188.797 296.359 187.734 295.469 186.266 295.469ZM193.109 293.375V307.297H191.891V293.375H193.109ZM181.797 303.188C184.359 303.188 187.891 303.172 190.969 302.719L191.062 303.625C187.891 304.219 184.469 304.234 181.969 304.234L181.797 303.188ZM199.734 294.281C201.875 294.297 203.422 295.609 203.438 297.547C203.422 299.289 202.172 300.531 200.359 300.75V303.125C201.656 303.062 202.961 302.969 204.172 302.812L204.25 303.734C201.312 304.234 198.016 304.266 195.578 304.25L195.375 303.219C196.492 303.211 197.789 303.203 199.125 303.156V300.75C197.281 300.539 196.016 299.297 196.031 297.547C196.016 295.609 197.562 294.297 199.734 294.281ZM199.734 295.344C198.281 295.344 197.219 296.25 197.234 297.547C197.219 298.844 198.281 299.75 199.734 299.75C201.172 299.75 202.219 298.844 202.234 297.547C202.219 296.25 201.172 295.344 199.734 295.344ZM206.281 293.375V299.109H208.547V300.172H206.281V307.266H205.062V293.375H206.281ZM224.906 293.391V303.578H223.672V298.25H220.812V297.234H223.672V293.391H224.906ZM225.297 305.938V306.969H215.984V302.656H217.219V305.938H225.297ZM218.219 296.25C218.219 298.047 219.609 299.797 221.641 300.484L221 301.469C219.43 300.906 218.219 299.734 217.625 298.297C217.023 299.898 215.742 301.18 214.094 301.797L213.453 300.797C215.5 300.078 216.984 298.25 216.984 296.25V295.531H213.844V294.516H221.328V295.531H218.219V296.25ZM238 293.375V299.297H240.219V300.328H238V307.266H236.766V293.375H238ZM227.047 303.562C228.18 303.562 229.5 303.562 230.875 303.516V301.969C229.258 301.789 228.203 300.844 228.219 299.469C228.203 297.906 229.531 296.891 231.5 296.891C233.438 296.891 234.781 297.906 234.797 299.469C234.781 300.844 233.711 301.789 232.109 301.984V303.469C233.406 303.406 234.711 303.305 235.922 303.125L236 304.062C232.969 304.578 229.688 304.609 227.25 304.609L227.047 303.562ZM235.672 295.078V296.078H227.297V295.078H230.875V293.406H232.109V295.078H235.672ZM231.5 297.844C230.219 297.844 229.359 298.5 229.359 299.469C229.359 300.438 230.219 301.062 231.5 301.047C232.766 301.062 233.625 300.438 233.625 299.469C233.625 298.5 232.766 297.844 231.5 297.844ZM253.75 299.828V300.797H241.031V299.828H253.75ZM252.156 301.906V304.859H243.812V306.188H252.609V307.078H242.578V304.016H250.938V302.828H242.562V301.906H252.156ZM252.109 293.797V296.672H243.906V297.891H252.359V298.781H242.688V295.828H250.875V294.688H242.641V293.797H252.109ZM271.547 300.75V301.75H258.875V300.75H264.594V299.375H260.562V293.781H269.969V294.781H261.797V296.078H269.594V297.016H261.797V298.391H270.047V299.375H265.812V300.75H271.547ZM265.219 302.797C268.266 302.781 269.984 303.562 270 305.016C269.984 306.469 268.266 307.234 265.219 307.234C262.141 307.234 260.422 306.469 260.422 305.016C260.422 303.562 262.141 302.781 265.219 302.797ZM265.219 303.719C262.922 303.719 261.641 304.188 261.656 305.016C261.641 305.859 262.922 306.297 265.219 306.281C267.484 306.297 268.766 305.859 268.766 305.016C268.766 304.188 267.484 303.719 265.219 303.719ZM279.656 295.781V296.781H272.688V295.781H275.578V293.797H276.797V295.781H279.656ZM276.172 297.719C277.922 297.719 279.172 299.031 279.188 300.875C279.172 302.734 277.922 304.062 276.172 304.062C274.438 304.062 273.188 302.734 273.188 300.875C273.188 299.031 274.438 297.719 276.172 297.719ZM276.172 298.75C275.078 298.766 274.281 299.656 274.281 300.875C274.281 302.109 275.078 303 276.172 302.984C277.281 303 278.094 302.109 278.094 300.875C278.094 299.656 277.281 298.766 276.172 298.75ZM284.547 293.375V307.266H283.375V300.25H281.531V306.578H280.375V293.719H281.531V299.234H283.375V293.375H284.547ZM113.266 321.641C113.25 323.875 114.859 326.328 116.875 327.281L116.172 328.25C114.609 327.492 113.289 325.836 112.672 323.953C112.031 326 110.633 327.797 109.078 328.594L108.328 327.625C110.328 326.656 112.047 324.016 112.062 321.641V319.828H108.828V318.812H116.391V319.828H113.266V321.641ZM119.312 317.375V323H121.641V324.047H119.312V331.266H118.094V317.375H119.312ZM126.516 321.328C126.516 323.531 127.594 325.922 129.438 327.016L128.734 327.969C127.398 327.156 126.438 325.672 125.953 323.984C125.438 325.828 124.406 327.414 123.016 328.266L122.234 327.344C124.156 326.219 125.328 323.75 125.328 321.375V318.688H126.516V321.328ZM134.297 317.375V331.266H133.109V317.375H134.297ZM131.422 317.672V330.562H130.266V323.406H127.906V322.359H130.266V317.672H131.422ZM147.078 317.391V321.969H149.172V323H147.078V327.797H145.859V317.391H147.078ZM144.531 319.094V320.094H136.25V319.094H139.781V317.391H141V319.094H144.531ZM140.391 320.859C142.375 320.859 143.719 321.875 143.734 323.453C143.719 325.016 142.375 326.016 140.391 326.016C138.391 326.016 137.031 325.016 137.047 323.453C137.031 321.875 138.391 320.859 140.391 320.859ZM140.391 321.828C139.078 321.828 138.203 322.469 138.219 323.453C138.203 324.438 139.078 325.062 140.391 325.047C141.688 325.062 142.562 324.438 142.578 323.453C142.562 322.469 141.688 321.828 140.391 321.828ZM147.719 329.938V330.969H138.391V326.969H139.594V329.938H147.719ZM165.891 317.375V326.922H164.719V317.375H165.891ZM163.312 317.688V325.641H162.156V322.266H160.297V321.25H162.156V317.688H163.312ZM160.781 318.578V319.609H159.562V323.859C160.102 323.82 160.625 323.773 161.109 323.719L161.156 324.641C158.922 325.031 156 325.047 154.141 325.047L154 324.016C154.43 324.016 154.922 324.016 155.453 324V319.609H154.25V318.578H160.781ZM161.859 326.75C161.859 328.531 164.234 329.922 166.688 330.25L166.203 331.203C164.117 330.883 162.094 329.867 161.25 328.359C160.391 329.867 158.391 330.883 156.281 331.203L155.828 330.25C158.266 329.922 160.625 328.531 160.625 326.75V326.312H161.859V326.75ZM156.609 323.984C157.203 323.977 157.812 323.953 158.422 323.922V319.609H156.609V323.984ZM180.609 328.469V329.484H167.891V328.469H173.609V325.469H169.391V318.359H170.625V320.875H177.844V318.359H179.047V325.469H174.812V328.469H180.609ZM170.625 324.469H177.844V321.875H170.625V324.469ZM193.234 317.375V325.797H192V322.625H189.641V321.609H192V317.375H193.234ZM193.234 326.547V331.078H184.156V326.547H193.234ZM185.375 327.531V330.078H192.031V327.531H185.375ZM189.844 318.844V319.844H181.734V318.844H185.188V317.25H186.391V318.844H189.844ZM185.781 320.562C187.672 320.562 189 321.578 189.016 323.031C189 324.531 187.672 325.516 185.781 325.516C183.891 325.516 182.562 324.531 182.562 323.031C182.562 321.578 183.891 320.562 185.781 320.562ZM185.781 321.516C184.578 321.516 183.734 322.141 183.734 323.031C183.734 323.953 184.578 324.562 185.781 324.578C186.984 324.562 187.828 323.953 187.828 323.031C187.828 322.141 186.984 321.516 185.781 321.516ZM204.203 319.625C204.203 321.516 205.641 323.25 207.656 323.938L206.984 324.906C205.445 324.344 204.234 323.195 203.625 321.75C203.031 323.383 201.797 324.672 200.172 325.297L199.516 324.312C201.594 323.531 202.984 321.672 203 319.531V318.094H204.203V319.625ZM210.422 317.375V321H212.516V322.031H210.422V325.828H209.203V317.375H210.422ZM205.969 326.188C208.828 326.188 210.547 327.109 210.547 328.703C210.547 330.328 208.828 331.234 205.969 331.234C203.109 331.234 201.359 330.328 201.359 328.703C201.359 327.109 203.109 326.188 205.969 326.188ZM205.969 327.172C203.875 327.172 202.578 327.75 202.594 328.703C202.578 329.688 203.875 330.25 205.969 330.266C208.078 330.25 209.359 329.688 209.359 328.703C209.359 327.75 208.078 327.172 205.969 327.172ZM224.25 317.375V320.781H226.344V321.812H224.25V325.266H223.031V317.375H224.25ZM220.203 318.328V319.328H215.266V323.422C218.055 323.438 219.641 323.336 221.5 322.969L221.656 323.969C219.703 324.359 218.047 324.438 215.125 324.438H214.047V318.328H220.203ZM224.25 325.984V331.078H215.484V325.984H224.25ZM216.688 326.984V330.078H223.031V326.984H216.688ZM233.547 317.625C236.641 317.625 238.453 318.469 238.453 320.016C238.453 321.594 236.641 322.438 233.547 322.453C230.453 322.438 228.625 321.594 228.625 320.016C228.625 318.469 230.453 317.625 233.547 317.625ZM233.547 318.547C231.234 318.547 229.891 319.109 229.906 320.016C229.891 320.984 231.234 321.516 233.547 321.516C235.844 321.516 237.203 320.984 237.203 320.016C237.203 319.109 235.844 318.547 233.547 318.547ZM239.875 323.391V324.391H227.219V323.391H239.875ZM238.25 325.594V328.703H230V330.141H238.672V331.109H228.781V327.797H237.047V326.531H228.75V325.594H238.25ZM255.922 317.375V320.734H258.016V321.766H255.922V325.5H254.703V317.375H255.922ZM246.859 318.172V320.297H250.906V318.172H252.125V324.625H245.656V318.172H246.859ZM246.859 323.641H250.906V321.281H246.859V323.641ZM256.031 326.281V327.266H248.422V330.078H256.297V331.078H247.203V326.281H256.031ZM265.219 317.625C268.312 317.625 270.125 318.469 270.125 320.016C270.125 321.594 268.312 322.438 265.219 322.453C262.125 322.438 260.297 321.594 260.297 320.016C260.297 318.469 262.125 317.625 265.219 317.625ZM265.219 318.547C262.906 318.547 261.562 319.109 261.578 320.016C261.562 320.984 262.906 321.516 265.219 321.516C267.516 321.516 268.875 320.984 268.875 320.016C268.875 319.109 267.516 318.547 265.219 318.547ZM271.547 323.391V324.391H258.891V323.391H271.547ZM269.922 325.594V328.703H261.672V330.141H270.344V331.109H260.453V327.797H268.719V326.531H260.422V325.594H269.922ZM283.703 318.672C283.703 320.625 286.266 322.328 288.766 322.672L288.266 323.672C286.109 323.312 283.977 322.117 283.078 320.406C282.188 322.125 280.047 323.312 277.891 323.672L277.391 322.672C279.891 322.328 282.438 320.656 282.438 318.672V317.875H283.703V318.672ZM289.391 325.203V326.234H283.641V331.266H282.438V326.234H276.734V325.203H289.391ZM299.281 326.703C299.281 327.93 299.938 329.234 301.266 329.984C302.578 329.164 303.281 327.781 303.281 326.703V325.938H304.484V326.703C304.484 328.125 305.531 329.562 307.312 330.172L306.703 331.078C305.312 330.586 304.336 329.617 303.859 328.453C303.43 329.578 302.578 330.641 301.297 331.188C299.945 330.672 299.086 329.648 298.672 328.484C298.18 329.609 297.219 330.578 295.891 331.078L295.266 330.172C297.016 329.516 298.078 328.031 298.094 326.703V325.938H299.281V326.703ZM306.047 317.391V325.328H304.828V317.391H306.047ZM298.547 318.203C300.656 318.203 302.188 319.516 302.188 321.453C302.188 323.359 300.656 324.672 298.547 324.672C296.438 324.672 294.906 323.359 294.906 321.453C294.906 319.516 296.438 318.203 298.547 318.203ZM298.547 319.25C297.125 319.234 296.094 320.156 296.109 321.453C296.094 322.734 297.125 323.641 298.547 323.656C299.953 323.641 300.984 322.734 300.984 321.453C300.984 320.156 299.953 319.234 298.547 319.25ZM312.141 318.453C314.031 318.469 315.391 320.086 315.594 322.688H318.703V317.375H319.922V331.297H318.703V323.703H315.609C315.461 326.422 314.078 328.125 312.141 328.125C310.094 328.125 308.656 326.25 308.656 323.297C308.656 320.344 310.094 318.469 312.141 318.453ZM312.141 319.547C310.766 319.562 309.828 321.031 309.828 323.297C309.828 325.562 310.766 327.031 312.141 327.031C313.5 327.031 314.453 325.562 314.453 323.297C314.453 321.031 313.5 319.562 312.141 319.547ZM334.953 328.453V329.484H322.234V328.453H325.391V324.703C324.203 324.086 323.484 323.086 323.484 321.828C323.484 319.672 325.594 318.266 328.562 318.25C331.531 318.266 333.641 319.672 333.641 321.828C333.641 323.062 332.945 324.055 331.797 324.672V328.453H334.953ZM328.562 319.266C326.281 319.25 324.672 320.281 324.672 321.828C324.672 323.375 326.281 324.422 328.562 324.422C330.828 324.422 332.453 323.375 332.453 321.828C332.453 320.281 330.828 319.25 328.562 319.266ZM326.594 328.453H330.562V325.141C329.961 325.305 329.289 325.391 328.562 325.391C327.852 325.391 327.188 325.312 326.594 325.156V328.453Z" fill="#646F7C"/>
<defs>
<clipPath id="clip0_1328_6923">
<rect width="62" height="62" fill="white" transform="translate(13 13)"/>
</clipPath>
<clipPath id="clip1_1328_6923">
<rect x="13" y="139" width="62" height="62" rx="31" fill="white"/>
</clipPath>
<clipPath id="clip2_1328_6923">
<rect width="61" height="61" fill="white" transform="translate(13 266)"/>
</clipPath>
</defs>
</svg>
