<svg xmlns="http://www.w3.org/2000/svg" width="24" height="24" viewBox="0 0 24 24" fill="none">
  <circle cx="12" cy="12" r="11.5" stroke="#A5A5A5"/>
  <mask id="mask0_476_4778" style="mask-type:alpha" maskUnits="userSpaceOnUse" x="4" y="6" width="12" height="12">
    <rect width="12" height="12" transform="matrix(-1 0 0 1 16 6)" fill="#A5A5A5"/>
  </mask>
  <g mask="url(#mask0_476_4778)">
    <path d="M14.2273 11.9994L10.5523 15.6744C10.4273 15.7994 10.3669 15.9453 10.3711 16.1119C10.3753 16.2786 10.4398 16.4244 10.5648 16.5494C10.6898 16.6744 10.8357 16.7369 11.0023 16.7369C11.169 16.7369 11.3148 16.6744 11.4398 16.5494L15.2898 12.7119C15.3898 12.6119 15.4648 12.4994 15.5148 12.3744C15.5648 12.2494 15.5898 12.1244 15.5898 11.9994C15.5898 11.8744 15.5648 11.7494 15.5148 11.6244C15.4648 11.4994 15.3898 11.3869 15.2898 11.2869L11.4398 7.43694C11.3148 7.31194 11.1669 7.25153 10.9961 7.25569C10.8253 7.25986 10.6773 7.32444 10.5523 7.44944C10.4273 7.57444 10.3648 7.72028 10.3648 7.88694C10.3648 8.05361 10.4273 8.19944 10.5523 8.32444L14.2273 11.9994Z" fill="#A5A5A5"/>
  </g>
</svg>