<svg width="70" height="65" viewBox="0 0 70 65" fill="none" xmlns="http://www.w3.org/2000/svg">
<path d="M54.4816 63.5005L54.4697 63.4999L54.4577 63.5C53.9746 63.5018 53.4989 63.3934 53.0708 63.1849C53.0702 63.1846 53.0696 63.1843 53.0689 63.184L35.2228 54.2859L34.9997 54.1746L34.7766 54.2859L16.9266 63.1859L16.9258 63.1862C16.4271 63.436 15.8631 63.5482 15.2984 63.5086C14.7338 63.4689 14.1942 63.2793 13.7408 62.9636C13.2877 62.6481 12.9398 62.2202 12.7335 61.7309C12.5273 61.2419 12.4697 60.7089 12.5662 60.1917L12.0747 60.1L12.5662 60.1917L16.0662 41.425L16.1168 41.1536L15.9141 40.9662L1.49911 27.6376C1.49831 27.6368 1.49751 27.636 1.49672 27.6353C1.11388 27.2706 0.844806 26.8162 0.71507 26.322C0.585523 25.8285 0.599006 25.3111 0.754277 24.824C0.925919 24.3257 1.24153 23.8795 1.66902 23.5377C2.09802 23.1947 2.62189 22.9713 3.18173 22.8955L3.18334 22.8953L23.1333 20.1286L23.3907 20.0929L23.5094 19.8618L32.2944 2.76181L32.2953 2.75997C32.538 2.28276 32.9188 1.87678 33.3971 1.59122C33.8757 1.30556 34.4311 1.15295 34.9997 1.15295C35.5682 1.15295 36.1236 1.30556 36.6022 1.59122C37.0805 1.87678 37.4613 2.28276 37.704 2.75998L37.7062 2.76431L46.5962 19.831L46.7154 20.0598L46.971 20.0952L66.921 22.8619L66.9226 22.8621C67.4824 22.9379 68.0063 23.1614 68.4353 23.5044C68.8628 23.8462 69.1785 24.2924 69.3501 24.7908C69.5053 25.2779 69.5188 25.7952 69.3893 26.2887C69.2595 26.783 68.9904 27.2374 68.6075 27.6021C68.6067 27.6028 68.606 27.6035 68.6052 27.6042L54.1902 40.9329L53.9875 41.1203L54.0381 41.3917L57.5381 60.1583L57.5381 60.1583L57.5394 60.1647C57.6446 60.6911 57.5897 61.2355 57.3801 61.7345C57.1707 62.2331 56.8146 62.668 56.3501 62.9855C55.8065 63.3476 55.1495 63.5298 54.4816 63.5005Z" stroke="#9CA3AF"/>
</svg>
