<svg width="70" height="70" viewBox="0 0 70 70" fill="none" xmlns="http://www.w3.org/2000/svg">
<path d="M50.8964 50.4592C45.9964 50.4592 41.4755 48.1551 38.5297 44.1009C37.8297 43.1384 38.0339 41.7676 38.9964 41.0384C39.9589 40.3092 41.3297 40.5426 42.0589 41.5051C44.188 44.3926 47.3964 46.0551 50.8964 46.0551C56.9922 46.0551 61.9797 41.0967 61.9797 34.9717C61.9797 28.8467 57.0214 23.8884 50.8964 23.8884C46.7547 23.8884 42.8464 26.1051 40.7172 29.6342L32.988 42.4967C30.0714 47.3676 24.7339 50.3717 19.0755 50.3717C10.5589 50.3717 3.61719 43.4301 3.61719 34.9134C3.61719 26.3967 10.5589 19.4551 19.0755 19.4551C23.9755 19.4551 28.4964 21.7592 31.4422 25.8134C32.1422 26.7759 31.938 28.1467 30.9755 28.8759C29.9839 29.6051 28.6422 29.3717 27.913 28.4092C25.813 25.5801 22.6047 23.9176 19.1047 23.9176C13.0089 23.9176 8.02135 28.8759 8.02135 35.0009C8.02135 41.1259 12.9797 46.0842 19.1047 46.0842C23.2464 46.0842 27.1547 43.8676 29.2839 40.3384L37.013 27.4759C39.9297 22.6051 45.2672 19.6009 50.9255 19.6009C59.4422 19.6009 66.3839 26.5426 66.3839 35.0592C66.3839 43.5759 59.413 50.4592 50.8964 50.4592Z" fill="#008CFF"/>
<path d="M18.9583 40.8327C22.18 40.8327 24.7917 38.221 24.7917 34.9993C24.7917 31.7777 22.18 29.166 18.9583 29.166C15.7367 29.166 13.125 31.7777 13.125 34.9993C13.125 38.221 15.7367 40.8327 18.9583 40.8327Z" fill="#008CFF"/>
<path d="M51.0423 40.8327C54.264 40.8327 56.8757 38.221 56.8757 34.9993C56.8757 31.7777 54.264 29.166 51.0423 29.166C47.8207 29.166 45.209 31.7777 45.209 34.9993C45.209 38.221 47.8207 40.8327 51.0423 40.8327Z" fill="#008CFF"/>
</svg>
